<?xml version="1.0" encoding="utf-8" standalone="no"?>
<!DOCTYPE svg PUBLIC "-//W3C//DTD SVG 1.1//EN"
  "http://www.w3.org/Graphics/SVG/1.1/DTD/svg11.dtd">
<svg height="720pt" version="1.1" viewBox="0 0 1152 720" width="1152pt" xmlns="http://www.w3.org/2000/svg" xmlns:xlink="http://www.w3.org/1999/xlink">
 <metadata>
  <rdf:RDF xmlns:cc="http://creativecommons.org/ns#" xmlns:dc="http://purl.org/dc/elements/1.1/" xmlns:rdf="http://www.w3.org/1999/02/22-rdf-syntax-ns#">
   <cc:Work>
    <dc:type rdf:resource="http://purl.org/dc/dcmitype/StillImage"/>
    <dc:date>2022-05-05T14:24:43.221697</dc:date>
    <dc:format>image/svg+xml</dc:format>
    <dc:creator>
     <cc:Agent>
      <dc:title>Matplotlib v3.4.3, https://matplotlib.org/</dc:title>
     </cc:Agent>
    </dc:creator>
   </cc:Work>
  </rdf:RDF>
 </metadata>
 <defs>
  <style type="text/css">*{stroke-linecap:butt;stroke-linejoin:round;}</style>
 </defs>
 <g id="figure_1">
  <g id="patch_1">
   <path d="M 0 720 
L 1152 720 
L 1152 0 
L 0 0 
z
" style="fill:#ffffff;"/>
  </g>
  <g id="axes_1">
   <g id="patch_2">
    <path d="M 144 640.8 
L 1036.8 640.8 
L 1036.8 86.4 
L 144 86.4 
z
" style="fill:#ffffff;"/>
   </g>
   <g id="matplotlib.axis_1">
    <g id="xtick_1">
     <g id="line2d_1">
      <path clip-path="url(#p60a4617e04)" d="M 144 640.8 
L 144 86.4 
" style="fill:none;stroke:#000000;stroke-linecap:square;stroke-width:0.8;"/>
     </g>
     <g id="line2d_2">
      <defs>
       <path d="M 0 0 
L 0 3.5 
" id="m6078c1c64d" style="stroke:#000000;stroke-width:0.8;"/>
      </defs>
      <g>
       <use style="stroke:#000000;stroke-width:0.8;" x="144" xlink:href="#m6078c1c64d" y="640.8"/>
      </g>
     </g>
     <g id="text_1">
      <!-- 0 -->
      <g transform="translate(140.81875 655.398438)scale(0.1 -0.1)">
       <defs>
        <path d="M 2034 4250 
Q 1547 4250 1301 3770 
Q 1056 3291 1056 2328 
Q 1056 1369 1301 889 
Q 1547 409 2034 409 
Q 2525 409 2770 889 
Q 3016 1369 3016 2328 
Q 3016 3291 2770 3770 
Q 2525 4250 2034 4250 
z
M 2034 4750 
Q 2819 4750 3233 4129 
Q 3647 3509 3647 2328 
Q 3647 1150 3233 529 
Q 2819 -91 2034 -91 
Q 1250 -91 836 529 
Q 422 1150 422 2328 
Q 422 3509 836 4129 
Q 1250 4750 2034 4750 
z
" id="DejaVuSans-30" transform="scale(0.015625)"/>
       </defs>
       <use xlink:href="#DejaVuSans-30"/>
      </g>
     </g>
    </g>
    <g id="xtick_2">
     <g id="line2d_3">
      <path clip-path="url(#p60a4617e04)" d="M 322.56 640.8 
L 322.56 86.4 
" style="fill:none;stroke:#000000;stroke-linecap:square;stroke-width:0.8;"/>
     </g>
     <g id="line2d_4">
      <g>
       <use style="stroke:#000000;stroke-width:0.8;" x="322.56" xlink:href="#m6078c1c64d" y="640.8"/>
      </g>
     </g>
     <g id="text_2">
      <!-- 2 -->
      <g transform="translate(319.37875 655.398438)scale(0.1 -0.1)">
       <defs>
        <path d="M 1228 531 
L 3431 531 
L 3431 0 
L 469 0 
L 469 531 
Q 828 903 1448 1529 
Q 2069 2156 2228 2338 
Q 2531 2678 2651 2914 
Q 2772 3150 2772 3378 
Q 2772 3750 2511 3984 
Q 2250 4219 1831 4219 
Q 1534 4219 1204 4116 
Q 875 4013 500 3803 
L 500 4441 
Q 881 4594 1212 4672 
Q 1544 4750 1819 4750 
Q 2544 4750 2975 4387 
Q 3406 4025 3406 3419 
Q 3406 3131 3298 2873 
Q 3191 2616 2906 2266 
Q 2828 2175 2409 1742 
Q 1991 1309 1228 531 
z
" id="DejaVuSans-32" transform="scale(0.015625)"/>
       </defs>
       <use xlink:href="#DejaVuSans-32"/>
      </g>
     </g>
    </g>
    <g id="xtick_3">
     <g id="line2d_5">
      <path clip-path="url(#p60a4617e04)" d="M 501.12 640.8 
L 501.12 86.4 
" style="fill:none;stroke:#000000;stroke-linecap:square;stroke-width:0.8;"/>
     </g>
     <g id="line2d_6">
      <g>
       <use style="stroke:#000000;stroke-width:0.8;" x="501.12" xlink:href="#m6078c1c64d" y="640.8"/>
      </g>
     </g>
     <g id="text_3">
      <!-- 4 -->
      <g transform="translate(497.93875 655.398438)scale(0.1 -0.1)">
       <defs>
        <path d="M 2419 4116 
L 825 1625 
L 2419 1625 
L 2419 4116 
z
M 2253 4666 
L 3047 4666 
L 3047 1625 
L 3713 1625 
L 3713 1100 
L 3047 1100 
L 3047 0 
L 2419 0 
L 2419 1100 
L 313 1100 
L 313 1709 
L 2253 4666 
z
" id="DejaVuSans-34" transform="scale(0.015625)"/>
       </defs>
       <use xlink:href="#DejaVuSans-34"/>
      </g>
     </g>
    </g>
    <g id="xtick_4">
     <g id="line2d_7">
      <path clip-path="url(#p60a4617e04)" d="M 679.68 640.8 
L 679.68 86.4 
" style="fill:none;stroke:#000000;stroke-linecap:square;stroke-width:0.8;"/>
     </g>
     <g id="line2d_8">
      <g>
       <use style="stroke:#000000;stroke-width:0.8;" x="679.68" xlink:href="#m6078c1c64d" y="640.8"/>
      </g>
     </g>
     <g id="text_4">
      <!-- 6 -->
      <g transform="translate(676.49875 655.398438)scale(0.1 -0.1)">
       <defs>
        <path d="M 2113 2584 
Q 1688 2584 1439 2293 
Q 1191 2003 1191 1497 
Q 1191 994 1439 701 
Q 1688 409 2113 409 
Q 2538 409 2786 701 
Q 3034 994 3034 1497 
Q 3034 2003 2786 2293 
Q 2538 2584 2113 2584 
z
M 3366 4563 
L 3366 3988 
Q 3128 4100 2886 4159 
Q 2644 4219 2406 4219 
Q 1781 4219 1451 3797 
Q 1122 3375 1075 2522 
Q 1259 2794 1537 2939 
Q 1816 3084 2150 3084 
Q 2853 3084 3261 2657 
Q 3669 2231 3669 1497 
Q 3669 778 3244 343 
Q 2819 -91 2113 -91 
Q 1303 -91 875 529 
Q 447 1150 447 2328 
Q 447 3434 972 4092 
Q 1497 4750 2381 4750 
Q 2619 4750 2861 4703 
Q 3103 4656 3366 4563 
z
" id="DejaVuSans-36" transform="scale(0.015625)"/>
       </defs>
       <use xlink:href="#DejaVuSans-36"/>
      </g>
     </g>
    </g>
    <g id="xtick_5">
     <g id="line2d_9">
      <path clip-path="url(#p60a4617e04)" d="M 858.24 640.8 
L 858.24 86.4 
" style="fill:none;stroke:#000000;stroke-linecap:square;stroke-width:0.8;"/>
     </g>
     <g id="line2d_10">
      <g>
       <use style="stroke:#000000;stroke-width:0.8;" x="858.24" xlink:href="#m6078c1c64d" y="640.8"/>
      </g>
     </g>
     <g id="text_5">
      <!-- 8 -->
      <g transform="translate(855.05875 655.398438)scale(0.1 -0.1)">
       <defs>
        <path d="M 2034 2216 
Q 1584 2216 1326 1975 
Q 1069 1734 1069 1313 
Q 1069 891 1326 650 
Q 1584 409 2034 409 
Q 2484 409 2743 651 
Q 3003 894 3003 1313 
Q 3003 1734 2745 1975 
Q 2488 2216 2034 2216 
z
M 1403 2484 
Q 997 2584 770 2862 
Q 544 3141 544 3541 
Q 544 4100 942 4425 
Q 1341 4750 2034 4750 
Q 2731 4750 3128 4425 
Q 3525 4100 3525 3541 
Q 3525 3141 3298 2862 
Q 3072 2584 2669 2484 
Q 3125 2378 3379 2068 
Q 3634 1759 3634 1313 
Q 3634 634 3220 271 
Q 2806 -91 2034 -91 
Q 1263 -91 848 271 
Q 434 634 434 1313 
Q 434 1759 690 2068 
Q 947 2378 1403 2484 
z
M 1172 3481 
Q 1172 3119 1398 2916 
Q 1625 2713 2034 2713 
Q 2441 2713 2670 2916 
Q 2900 3119 2900 3481 
Q 2900 3844 2670 4047 
Q 2441 4250 2034 4250 
Q 1625 4250 1398 4047 
Q 1172 3844 1172 3481 
z
" id="DejaVuSans-38" transform="scale(0.015625)"/>
       </defs>
       <use xlink:href="#DejaVuSans-38"/>
      </g>
     </g>
    </g>
    <g id="xtick_6">
     <g id="line2d_11">
      <path clip-path="url(#p60a4617e04)" d="M 1036.8 640.8 
L 1036.8 86.4 
" style="fill:none;stroke:#000000;stroke-linecap:square;stroke-width:0.8;"/>
     </g>
     <g id="line2d_12">
      <g>
       <use style="stroke:#000000;stroke-width:0.8;" x="1036.8" xlink:href="#m6078c1c64d" y="640.8"/>
      </g>
     </g>
     <g id="text_6">
      <!-- 10 -->
      <g transform="translate(1030.4375 655.398438)scale(0.1 -0.1)">
       <defs>
        <path d="M 794 531 
L 1825 531 
L 1825 4091 
L 703 3866 
L 703 4441 
L 1819 4666 
L 2450 4666 
L 2450 531 
L 3481 531 
L 3481 0 
L 794 0 
L 794 531 
z
" id="DejaVuSans-31" transform="scale(0.015625)"/>
       </defs>
       <use xlink:href="#DejaVuSans-31"/>
       <use x="63.623047" xlink:href="#DejaVuSans-30"/>
      </g>
     </g>
    </g>
    <g id="xtick_7">
     <g id="line2d_13">
      <path clip-path="url(#p60a4617e04)" d="M 188.64 640.8 
L 188.64 86.4 
" style="fill:none;stroke:#4169e1;stroke-dasharray:0.8,1.32;stroke-dashoffset:0;stroke-width:0.8;"/>
     </g>
     <g id="line2d_14">
      <defs>
       <path d="M 0 0 
L 0 2 
" id="mc54a1f32bf" style="stroke:#000000;stroke-width:0.6;"/>
      </defs>
      <g>
       <use style="stroke:#000000;stroke-width:0.6;" x="188.64" xlink:href="#mc54a1f32bf" y="640.8"/>
      </g>
     </g>
    </g>
    <g id="xtick_8">
     <g id="line2d_15">
      <path clip-path="url(#p60a4617e04)" d="M 233.28 640.8 
L 233.28 86.4 
" style="fill:none;stroke:#4169e1;stroke-dasharray:0.8,1.32;stroke-dashoffset:0;stroke-width:0.8;"/>
     </g>
     <g id="line2d_16">
      <g>
       <use style="stroke:#000000;stroke-width:0.6;" x="233.28" xlink:href="#mc54a1f32bf" y="640.8"/>
      </g>
     </g>
    </g>
    <g id="xtick_9">
     <g id="line2d_17">
      <path clip-path="url(#p60a4617e04)" d="M 277.92 640.8 
L 277.92 86.4 
" style="fill:none;stroke:#4169e1;stroke-dasharray:0.8,1.32;stroke-dashoffset:0;stroke-width:0.8;"/>
     </g>
     <g id="line2d_18">
      <g>
       <use style="stroke:#000000;stroke-width:0.6;" x="277.92" xlink:href="#mc54a1f32bf" y="640.8"/>
      </g>
     </g>
    </g>
    <g id="xtick_10">
     <g id="line2d_19">
      <path clip-path="url(#p60a4617e04)" d="M 367.2 640.8 
L 367.2 86.4 
" style="fill:none;stroke:#4169e1;stroke-dasharray:0.8,1.32;stroke-dashoffset:0;stroke-width:0.8;"/>
     </g>
     <g id="line2d_20">
      <g>
       <use style="stroke:#000000;stroke-width:0.6;" x="367.2" xlink:href="#mc54a1f32bf" y="640.8"/>
      </g>
     </g>
    </g>
    <g id="xtick_11">
     <g id="line2d_21">
      <path clip-path="url(#p60a4617e04)" d="M 411.84 640.8 
L 411.84 86.4 
" style="fill:none;stroke:#4169e1;stroke-dasharray:0.8,1.32;stroke-dashoffset:0;stroke-width:0.8;"/>
     </g>
     <g id="line2d_22">
      <g>
       <use style="stroke:#000000;stroke-width:0.6;" x="411.84" xlink:href="#mc54a1f32bf" y="640.8"/>
      </g>
     </g>
    </g>
    <g id="xtick_12">
     <g id="line2d_23">
      <path clip-path="url(#p60a4617e04)" d="M 456.48 640.8 
L 456.48 86.4 
" style="fill:none;stroke:#4169e1;stroke-dasharray:0.8,1.32;stroke-dashoffset:0;stroke-width:0.8;"/>
     </g>
     <g id="line2d_24">
      <g>
       <use style="stroke:#000000;stroke-width:0.6;" x="456.48" xlink:href="#mc54a1f32bf" y="640.8"/>
      </g>
     </g>
    </g>
    <g id="xtick_13">
     <g id="line2d_25">
      <path clip-path="url(#p60a4617e04)" d="M 545.76 640.8 
L 545.76 86.4 
" style="fill:none;stroke:#4169e1;stroke-dasharray:0.8,1.32;stroke-dashoffset:0;stroke-width:0.8;"/>
     </g>
     <g id="line2d_26">
      <g>
       <use style="stroke:#000000;stroke-width:0.6;" x="545.76" xlink:href="#mc54a1f32bf" y="640.8"/>
      </g>
     </g>
    </g>
    <g id="xtick_14">
     <g id="line2d_27">
      <path clip-path="url(#p60a4617e04)" d="M 590.4 640.8 
L 590.4 86.4 
" style="fill:none;stroke:#4169e1;stroke-dasharray:0.8,1.32;stroke-dashoffset:0;stroke-width:0.8;"/>
     </g>
     <g id="line2d_28">
      <g>
       <use style="stroke:#000000;stroke-width:0.6;" x="590.4" xlink:href="#mc54a1f32bf" y="640.8"/>
      </g>
     </g>
    </g>
    <g id="xtick_15">
     <g id="line2d_29">
      <path clip-path="url(#p60a4617e04)" d="M 635.04 640.8 
L 635.04 86.4 
" style="fill:none;stroke:#4169e1;stroke-dasharray:0.8,1.32;stroke-dashoffset:0;stroke-width:0.8;"/>
     </g>
     <g id="line2d_30">
      <g>
       <use style="stroke:#000000;stroke-width:0.6;" x="635.04" xlink:href="#mc54a1f32bf" y="640.8"/>
      </g>
     </g>
    </g>
    <g id="xtick_16">
     <g id="line2d_31">
      <path clip-path="url(#p60a4617e04)" d="M 724.32 640.8 
L 724.32 86.4 
" style="fill:none;stroke:#4169e1;stroke-dasharray:0.8,1.32;stroke-dashoffset:0;stroke-width:0.8;"/>
     </g>
     <g id="line2d_32">
      <g>
       <use style="stroke:#000000;stroke-width:0.6;" x="724.32" xlink:href="#mc54a1f32bf" y="640.8"/>
      </g>
     </g>
    </g>
    <g id="xtick_17">
     <g id="line2d_33">
      <path clip-path="url(#p60a4617e04)" d="M 768.96 640.8 
L 768.96 86.4 
" style="fill:none;stroke:#4169e1;stroke-dasharray:0.8,1.32;stroke-dashoffset:0;stroke-width:0.8;"/>
     </g>
     <g id="line2d_34">
      <g>
       <use style="stroke:#000000;stroke-width:0.6;" x="768.96" xlink:href="#mc54a1f32bf" y="640.8"/>
      </g>
     </g>
    </g>
    <g id="xtick_18">
     <g id="line2d_35">
      <path clip-path="url(#p60a4617e04)" d="M 813.6 640.8 
L 813.6 86.4 
" style="fill:none;stroke:#4169e1;stroke-dasharray:0.8,1.32;stroke-dashoffset:0;stroke-width:0.8;"/>
     </g>
     <g id="line2d_36">
      <g>
       <use style="stroke:#000000;stroke-width:0.6;" x="813.6" xlink:href="#mc54a1f32bf" y="640.8"/>
      </g>
     </g>
    </g>
    <g id="xtick_19">
     <g id="line2d_37">
      <path clip-path="url(#p60a4617e04)" d="M 902.88 640.8 
L 902.88 86.4 
" style="fill:none;stroke:#4169e1;stroke-dasharray:0.8,1.32;stroke-dashoffset:0;stroke-width:0.8;"/>
     </g>
     <g id="line2d_38">
      <g>
       <use style="stroke:#000000;stroke-width:0.6;" x="902.88" xlink:href="#mc54a1f32bf" y="640.8"/>
      </g>
     </g>
    </g>
    <g id="xtick_20">
     <g id="line2d_39">
      <path clip-path="url(#p60a4617e04)" d="M 947.52 640.8 
L 947.52 86.4 
" style="fill:none;stroke:#4169e1;stroke-dasharray:0.8,1.32;stroke-dashoffset:0;stroke-width:0.8;"/>
     </g>
     <g id="line2d_40">
      <g>
       <use style="stroke:#000000;stroke-width:0.6;" x="947.52" xlink:href="#mc54a1f32bf" y="640.8"/>
      </g>
     </g>
    </g>
    <g id="xtick_21">
     <g id="line2d_41">
      <path clip-path="url(#p60a4617e04)" d="M 992.16 640.8 
L 992.16 86.4 
" style="fill:none;stroke:#4169e1;stroke-dasharray:0.8,1.32;stroke-dashoffset:0;stroke-width:0.8;"/>
     </g>
     <g id="line2d_42">
      <g>
       <use style="stroke:#000000;stroke-width:0.6;" x="992.16" xlink:href="#mc54a1f32bf" y="640.8"/>
      </g>
     </g>
    </g>
    <g id="text_7">
     <!-- Время, c -->
     <g transform="translate(568.011719 669.076563)scale(0.1 -0.1)">
      <defs>
       <path d="M 1259 2228 
L 1259 519 
L 2272 519 
Q 2781 519 3026 730 
Q 3272 941 3272 1375 
Q 3272 1813 3026 2020 
Q 2781 2228 2272 2228 
L 1259 2228 
z
M 1259 4147 
L 1259 2741 
L 2194 2741 
Q 2656 2741 2882 2914 
Q 3109 3088 3109 3444 
Q 3109 3797 2882 3972 
Q 2656 4147 2194 4147 
L 1259 4147 
z
M 628 4666 
L 2241 4666 
Q 2963 4666 3353 4366 
Q 3744 4066 3744 3513 
Q 3744 3084 3544 2831 
Q 3344 2578 2956 2516 
Q 3422 2416 3680 2098 
Q 3938 1781 3938 1306 
Q 3938 681 3513 340 
Q 3088 0 2303 0 
L 628 0 
L 628 4666 
z
" id="DejaVuSans-412" transform="scale(0.015625)"/>
       <path d="M 1159 525 
L 1159 -1331 
L 581 -1331 
L 581 3500 
L 1159 3500 
L 1159 2969 
Q 1341 3281 1617 3432 
Q 1894 3584 2278 3584 
Q 2916 3584 3314 3078 
Q 3713 2572 3713 1747 
Q 3713 922 3314 415 
Q 2916 -91 2278 -91 
Q 1894 -91 1617 61 
Q 1341 213 1159 525 
z
M 3116 1747 
Q 3116 2381 2855 2742 
Q 2594 3103 2138 3103 
Q 1681 3103 1420 2742 
Q 1159 2381 1159 1747 
Q 1159 1113 1420 752 
Q 1681 391 2138 391 
Q 2594 391 2855 752 
Q 3116 1113 3116 1747 
z
" id="DejaVuSans-440" transform="scale(0.015625)"/>
       <path d="M 3597 1894 
L 3597 1613 
L 953 1613 
Q 991 1019 1311 708 
Q 1631 397 2203 397 
Q 2534 397 2845 478 
Q 3156 559 3463 722 
L 3463 178 
Q 3153 47 2828 -22 
Q 2503 -91 2169 -91 
Q 1331 -91 842 396 
Q 353 884 353 1716 
Q 353 2575 817 3079 
Q 1281 3584 2069 3584 
Q 2775 3584 3186 3129 
Q 3597 2675 3597 1894 
z
M 3022 2063 
Q 3016 2534 2758 2815 
Q 2500 3097 2075 3097 
Q 1594 3097 1305 2825 
Q 1016 2553 972 2059 
L 3022 2063 
z
" id="DejaVuSans-435" transform="scale(0.015625)"/>
       <path d="M 581 3500 
L 1422 3500 
L 2416 1156 
L 3413 3500 
L 4247 3500 
L 4247 0 
L 3669 0 
L 3669 2950 
L 2703 672 
L 2128 672 
L 1159 2950 
L 1159 0 
L 581 0 
L 581 3500 
z
" id="DejaVuSans-43c" transform="scale(0.015625)"/>
       <path d="M 1181 2491 
Q 1181 2231 1381 2084 
Q 1581 1938 1953 1938 
L 2728 1938 
L 2728 3041 
L 1953 3041 
Q 1581 3041 1381 2897 
Q 1181 2753 1181 2491 
z
M 363 0 
L 1431 1534 
Q 1069 1616 828 1830 
Q 588 2044 588 2491 
Q 588 2997 923 3248 
Q 1259 3500 1938 3500 
L 3306 3500 
L 3306 0 
L 2728 0 
L 2728 1478 
L 2013 1478 
L 981 0 
L 363 0 
z
" id="DejaVuSans-44f" transform="scale(0.015625)"/>
       <path d="M 750 794 
L 1409 794 
L 1409 256 
L 897 -744 
L 494 -744 
L 750 256 
L 750 794 
z
" id="DejaVuSans-2c" transform="scale(0.015625)"/>
       <path id="DejaVuSans-20" transform="scale(0.015625)"/>
       <path d="M 3122 3366 
L 3122 2828 
Q 2878 2963 2633 3030 
Q 2388 3097 2138 3097 
Q 1578 3097 1268 2742 
Q 959 2388 959 1747 
Q 959 1106 1268 751 
Q 1578 397 2138 397 
Q 2388 397 2633 464 
Q 2878 531 3122 666 
L 3122 134 
Q 2881 22 2623 -34 
Q 2366 -91 2075 -91 
Q 1284 -91 818 406 
Q 353 903 353 1747 
Q 353 2603 823 3093 
Q 1294 3584 2113 3584 
Q 2378 3584 2631 3529 
Q 2884 3475 3122 3366 
z
" id="DejaVuSans-63" transform="scale(0.015625)"/>
      </defs>
      <use xlink:href="#DejaVuSans-412"/>
      <use x="68.603516" xlink:href="#DejaVuSans-440"/>
      <use x="132.080078" xlink:href="#DejaVuSans-435"/>
      <use x="193.603516" xlink:href="#DejaVuSans-43c"/>
      <use x="269.042969" xlink:href="#DejaVuSans-44f"/>
      <use x="329.199219" xlink:href="#DejaVuSans-2c"/>
      <use x="360.986328" xlink:href="#DejaVuSans-20"/>
      <use x="392.773438" xlink:href="#DejaVuSans-63"/>
     </g>
    </g>
   </g>
   <g id="matplotlib.axis_2">
    <g id="ytick_1">
     <g id="line2d_43">
      <path clip-path="url(#p60a4617e04)" d="M 144 640.8 
L 1036.8 640.8 
" style="fill:none;stroke:#000000;stroke-linecap:square;stroke-width:0.8;"/>
     </g>
     <g id="line2d_44">
      <defs>
       <path d="M 0 0 
L -3.5 0 
" id="m5edd694168" style="stroke:#000000;stroke-width:0.8;"/>
      </defs>
      <g>
       <use style="stroke:#000000;stroke-width:0.8;" x="144" xlink:href="#m5edd694168" y="640.8"/>
      </g>
     </g>
     <g id="text_8">
      <!-- 0.0 -->
      <g transform="translate(121.096875 644.599219)scale(0.1 -0.1)">
       <defs>
        <path d="M 684 794 
L 1344 794 
L 1344 0 
L 684 0 
L 684 794 
z
" id="DejaVuSans-2e" transform="scale(0.015625)"/>
       </defs>
       <use xlink:href="#DejaVuSans-30"/>
       <use x="63.623047" xlink:href="#DejaVuSans-2e"/>
       <use x="95.410156" xlink:href="#DejaVuSans-30"/>
      </g>
     </g>
    </g>
    <g id="ytick_2">
     <g id="line2d_45">
      <path clip-path="url(#p60a4617e04)" d="M 144 561.6 
L 1036.8 561.6 
" style="fill:none;stroke:#000000;stroke-linecap:square;stroke-width:0.8;"/>
     </g>
     <g id="line2d_46">
      <g>
       <use style="stroke:#000000;stroke-width:0.8;" x="144" xlink:href="#m5edd694168" y="561.6"/>
      </g>
     </g>
     <g id="text_9">
      <!-- 0.5 -->
      <g transform="translate(121.096875 565.399219)scale(0.1 -0.1)">
       <defs>
        <path d="M 691 4666 
L 3169 4666 
L 3169 4134 
L 1269 4134 
L 1269 2991 
Q 1406 3038 1543 3061 
Q 1681 3084 1819 3084 
Q 2600 3084 3056 2656 
Q 3513 2228 3513 1497 
Q 3513 744 3044 326 
Q 2575 -91 1722 -91 
Q 1428 -91 1123 -41 
Q 819 9 494 109 
L 494 744 
Q 775 591 1075 516 
Q 1375 441 1709 441 
Q 2250 441 2565 725 
Q 2881 1009 2881 1497 
Q 2881 1984 2565 2268 
Q 2250 2553 1709 2553 
Q 1456 2553 1204 2497 
Q 953 2441 691 2322 
L 691 4666 
z
" id="DejaVuSans-35" transform="scale(0.015625)"/>
       </defs>
       <use xlink:href="#DejaVuSans-30"/>
       <use x="63.623047" xlink:href="#DejaVuSans-2e"/>
       <use x="95.410156" xlink:href="#DejaVuSans-35"/>
      </g>
     </g>
    </g>
    <g id="ytick_3">
     <g id="line2d_47">
      <path clip-path="url(#p60a4617e04)" d="M 144 482.4 
L 1036.8 482.4 
" style="fill:none;stroke:#000000;stroke-linecap:square;stroke-width:0.8;"/>
     </g>
     <g id="line2d_48">
      <g>
       <use style="stroke:#000000;stroke-width:0.8;" x="144" xlink:href="#m5edd694168" y="482.4"/>
      </g>
     </g>
     <g id="text_10">
      <!-- 1.0 -->
      <g transform="translate(121.096875 486.199219)scale(0.1 -0.1)">
       <use xlink:href="#DejaVuSans-31"/>
       <use x="63.623047" xlink:href="#DejaVuSans-2e"/>
       <use x="95.410156" xlink:href="#DejaVuSans-30"/>
      </g>
     </g>
    </g>
    <g id="ytick_4">
     <g id="line2d_49">
      <path clip-path="url(#p60a4617e04)" d="M 144 403.2 
L 1036.8 403.2 
" style="fill:none;stroke:#000000;stroke-linecap:square;stroke-width:0.8;"/>
     </g>
     <g id="line2d_50">
      <g>
       <use style="stroke:#000000;stroke-width:0.8;" x="144" xlink:href="#m5edd694168" y="403.2"/>
      </g>
     </g>
     <g id="text_11">
      <!-- 1.5 -->
      <g transform="translate(121.096875 406.999219)scale(0.1 -0.1)">
       <use xlink:href="#DejaVuSans-31"/>
       <use x="63.623047" xlink:href="#DejaVuSans-2e"/>
       <use x="95.410156" xlink:href="#DejaVuSans-35"/>
      </g>
     </g>
    </g>
    <g id="ytick_5">
     <g id="line2d_51">
      <path clip-path="url(#p60a4617e04)" d="M 144 324 
L 1036.8 324 
" style="fill:none;stroke:#000000;stroke-linecap:square;stroke-width:0.8;"/>
     </g>
     <g id="line2d_52">
      <g>
       <use style="stroke:#000000;stroke-width:0.8;" x="144" xlink:href="#m5edd694168" y="324"/>
      </g>
     </g>
     <g id="text_12">
      <!-- 2.0 -->
      <g transform="translate(121.096875 327.799219)scale(0.1 -0.1)">
       <use xlink:href="#DejaVuSans-32"/>
       <use x="63.623047" xlink:href="#DejaVuSans-2e"/>
       <use x="95.410156" xlink:href="#DejaVuSans-30"/>
      </g>
     </g>
    </g>
    <g id="ytick_6">
     <g id="line2d_53">
      <path clip-path="url(#p60a4617e04)" d="M 144 244.8 
L 1036.8 244.8 
" style="fill:none;stroke:#000000;stroke-linecap:square;stroke-width:0.8;"/>
     </g>
     <g id="line2d_54">
      <g>
       <use style="stroke:#000000;stroke-width:0.8;" x="144" xlink:href="#m5edd694168" y="244.8"/>
      </g>
     </g>
     <g id="text_13">
      <!-- 2.5 -->
      <g transform="translate(121.096875 248.599219)scale(0.1 -0.1)">
       <use xlink:href="#DejaVuSans-32"/>
       <use x="63.623047" xlink:href="#DejaVuSans-2e"/>
       <use x="95.410156" xlink:href="#DejaVuSans-35"/>
      </g>
     </g>
    </g>
    <g id="ytick_7">
     <g id="line2d_55">
      <path clip-path="url(#p60a4617e04)" d="M 144 165.6 
L 1036.8 165.6 
" style="fill:none;stroke:#000000;stroke-linecap:square;stroke-width:0.8;"/>
     </g>
     <g id="line2d_56">
      <g>
       <use style="stroke:#000000;stroke-width:0.8;" x="144" xlink:href="#m5edd694168" y="165.6"/>
      </g>
     </g>
     <g id="text_14">
      <!-- 3.0 -->
      <g transform="translate(121.096875 169.399219)scale(0.1 -0.1)">
       <defs>
        <path d="M 2597 2516 
Q 3050 2419 3304 2112 
Q 3559 1806 3559 1356 
Q 3559 666 3084 287 
Q 2609 -91 1734 -91 
Q 1441 -91 1130 -33 
Q 819 25 488 141 
L 488 750 
Q 750 597 1062 519 
Q 1375 441 1716 441 
Q 2309 441 2620 675 
Q 2931 909 2931 1356 
Q 2931 1769 2642 2001 
Q 2353 2234 1838 2234 
L 1294 2234 
L 1294 2753 
L 1863 2753 
Q 2328 2753 2575 2939 
Q 2822 3125 2822 3475 
Q 2822 3834 2567 4026 
Q 2313 4219 1838 4219 
Q 1578 4219 1281 4162 
Q 984 4106 628 3988 
L 628 4550 
Q 988 4650 1302 4700 
Q 1616 4750 1894 4750 
Q 2613 4750 3031 4423 
Q 3450 4097 3450 3541 
Q 3450 3153 3228 2886 
Q 3006 2619 2597 2516 
z
" id="DejaVuSans-33" transform="scale(0.015625)"/>
       </defs>
       <use xlink:href="#DejaVuSans-33"/>
       <use x="63.623047" xlink:href="#DejaVuSans-2e"/>
       <use x="95.410156" xlink:href="#DejaVuSans-30"/>
      </g>
     </g>
    </g>
    <g id="ytick_8">
     <g id="line2d_57">
      <path clip-path="url(#p60a4617e04)" d="M 144 86.4 
L 1036.8 86.4 
" style="fill:none;stroke:#000000;stroke-linecap:square;stroke-width:0.8;"/>
     </g>
     <g id="line2d_58">
      <g>
       <use style="stroke:#000000;stroke-width:0.8;" x="144" xlink:href="#m5edd694168" y="86.4"/>
      </g>
     </g>
     <g id="text_15">
      <!-- 3.5 -->
      <g transform="translate(121.096875 90.199219)scale(0.1 -0.1)">
       <use xlink:href="#DejaVuSans-33"/>
       <use x="63.623047" xlink:href="#DejaVuSans-2e"/>
       <use x="95.410156" xlink:href="#DejaVuSans-35"/>
      </g>
     </g>
    </g>
    <g id="ytick_9">
     <g id="line2d_59">
      <path clip-path="url(#p60a4617e04)" d="M 144 624.96 
L 1036.8 624.96 
" style="fill:none;stroke:#4169e1;stroke-dasharray:0.8,1.32;stroke-dashoffset:0;stroke-width:0.8;"/>
     </g>
     <g id="line2d_60">
      <defs>
       <path d="M 0 0 
L -2 0 
" id="mbff2d796cf" style="stroke:#000000;stroke-width:0.6;"/>
      </defs>
      <g>
       <use style="stroke:#000000;stroke-width:0.6;" x="144" xlink:href="#mbff2d796cf" y="624.96"/>
      </g>
     </g>
    </g>
    <g id="ytick_10">
     <g id="line2d_61">
      <path clip-path="url(#p60a4617e04)" d="M 144 609.12 
L 1036.8 609.12 
" style="fill:none;stroke:#4169e1;stroke-dasharray:0.8,1.32;stroke-dashoffset:0;stroke-width:0.8;"/>
     </g>
     <g id="line2d_62">
      <g>
       <use style="stroke:#000000;stroke-width:0.6;" x="144" xlink:href="#mbff2d796cf" y="609.12"/>
      </g>
     </g>
    </g>
    <g id="ytick_11">
     <g id="line2d_63">
      <path clip-path="url(#p60a4617e04)" d="M 144 593.28 
L 1036.8 593.28 
" style="fill:none;stroke:#4169e1;stroke-dasharray:0.8,1.32;stroke-dashoffset:0;stroke-width:0.8;"/>
     </g>
     <g id="line2d_64">
      <g>
       <use style="stroke:#000000;stroke-width:0.6;" x="144" xlink:href="#mbff2d796cf" y="593.28"/>
      </g>
     </g>
    </g>
    <g id="ytick_12">
     <g id="line2d_65">
      <path clip-path="url(#p60a4617e04)" d="M 144 577.44 
L 1036.8 577.44 
" style="fill:none;stroke:#4169e1;stroke-dasharray:0.8,1.32;stroke-dashoffset:0;stroke-width:0.8;"/>
     </g>
     <g id="line2d_66">
      <g>
       <use style="stroke:#000000;stroke-width:0.6;" x="144" xlink:href="#mbff2d796cf" y="577.44"/>
      </g>
     </g>
    </g>
    <g id="ytick_13">
     <g id="line2d_67">
      <path clip-path="url(#p60a4617e04)" d="M 144 545.76 
L 1036.8 545.76 
" style="fill:none;stroke:#4169e1;stroke-dasharray:0.8,1.32;stroke-dashoffset:0;stroke-width:0.8;"/>
     </g>
     <g id="line2d_68">
      <g>
       <use style="stroke:#000000;stroke-width:0.6;" x="144" xlink:href="#mbff2d796cf" y="545.76"/>
      </g>
     </g>
    </g>
    <g id="ytick_14">
     <g id="line2d_69">
      <path clip-path="url(#p60a4617e04)" d="M 144 529.92 
L 1036.8 529.92 
" style="fill:none;stroke:#4169e1;stroke-dasharray:0.8,1.32;stroke-dashoffset:0;stroke-width:0.8;"/>
     </g>
     <g id="line2d_70">
      <g>
       <use style="stroke:#000000;stroke-width:0.6;" x="144" xlink:href="#mbff2d796cf" y="529.92"/>
      </g>
     </g>
    </g>
    <g id="ytick_15">
     <g id="line2d_71">
      <path clip-path="url(#p60a4617e04)" d="M 144 514.08 
L 1036.8 514.08 
" style="fill:none;stroke:#4169e1;stroke-dasharray:0.8,1.32;stroke-dashoffset:0;stroke-width:0.8;"/>
     </g>
     <g id="line2d_72">
      <g>
       <use style="stroke:#000000;stroke-width:0.6;" x="144" xlink:href="#mbff2d796cf" y="514.08"/>
      </g>
     </g>
    </g>
    <g id="ytick_16">
     <g id="line2d_73">
      <path clip-path="url(#p60a4617e04)" d="M 144 498.24 
L 1036.8 498.24 
" style="fill:none;stroke:#4169e1;stroke-dasharray:0.8,1.32;stroke-dashoffset:0;stroke-width:0.8;"/>
     </g>
     <g id="line2d_74">
      <g>
       <use style="stroke:#000000;stroke-width:0.6;" x="144" xlink:href="#mbff2d796cf" y="498.24"/>
      </g>
     </g>
    </g>
    <g id="ytick_17">
     <g id="line2d_75">
      <path clip-path="url(#p60a4617e04)" d="M 144 466.56 
L 1036.8 466.56 
" style="fill:none;stroke:#4169e1;stroke-dasharray:0.8,1.32;stroke-dashoffset:0;stroke-width:0.8;"/>
     </g>
     <g id="line2d_76">
      <g>
       <use style="stroke:#000000;stroke-width:0.6;" x="144" xlink:href="#mbff2d796cf" y="466.56"/>
      </g>
     </g>
    </g>
    <g id="ytick_18">
     <g id="line2d_77">
      <path clip-path="url(#p60a4617e04)" d="M 144 450.72 
L 1036.8 450.72 
" style="fill:none;stroke:#4169e1;stroke-dasharray:0.8,1.32;stroke-dashoffset:0;stroke-width:0.8;"/>
     </g>
     <g id="line2d_78">
      <g>
       <use style="stroke:#000000;stroke-width:0.6;" x="144" xlink:href="#mbff2d796cf" y="450.72"/>
      </g>
     </g>
    </g>
    <g id="ytick_19">
     <g id="line2d_79">
      <path clip-path="url(#p60a4617e04)" d="M 144 434.88 
L 1036.8 434.88 
" style="fill:none;stroke:#4169e1;stroke-dasharray:0.8,1.32;stroke-dashoffset:0;stroke-width:0.8;"/>
     </g>
     <g id="line2d_80">
      <g>
       <use style="stroke:#000000;stroke-width:0.6;" x="144" xlink:href="#mbff2d796cf" y="434.88"/>
      </g>
     </g>
    </g>
    <g id="ytick_20">
     <g id="line2d_81">
      <path clip-path="url(#p60a4617e04)" d="M 144 419.04 
L 1036.8 419.04 
" style="fill:none;stroke:#4169e1;stroke-dasharray:0.8,1.32;stroke-dashoffset:0;stroke-width:0.8;"/>
     </g>
     <g id="line2d_82">
      <g>
       <use style="stroke:#000000;stroke-width:0.6;" x="144" xlink:href="#mbff2d796cf" y="419.04"/>
      </g>
     </g>
    </g>
    <g id="ytick_21">
     <g id="line2d_83">
      <path clip-path="url(#p60a4617e04)" d="M 144 387.36 
L 1036.8 387.36 
" style="fill:none;stroke:#4169e1;stroke-dasharray:0.8,1.32;stroke-dashoffset:0;stroke-width:0.8;"/>
     </g>
     <g id="line2d_84">
      <g>
       <use style="stroke:#000000;stroke-width:0.6;" x="144" xlink:href="#mbff2d796cf" y="387.36"/>
      </g>
     </g>
    </g>
    <g id="ytick_22">
     <g id="line2d_85">
      <path clip-path="url(#p60a4617e04)" d="M 144 371.52 
L 1036.8 371.52 
" style="fill:none;stroke:#4169e1;stroke-dasharray:0.8,1.32;stroke-dashoffset:0;stroke-width:0.8;"/>
     </g>
     <g id="line2d_86">
      <g>
       <use style="stroke:#000000;stroke-width:0.6;" x="144" xlink:href="#mbff2d796cf" y="371.52"/>
      </g>
     </g>
    </g>
    <g id="ytick_23">
     <g id="line2d_87">
      <path clip-path="url(#p60a4617e04)" d="M 144 355.68 
L 1036.8 355.68 
" style="fill:none;stroke:#4169e1;stroke-dasharray:0.8,1.32;stroke-dashoffset:0;stroke-width:0.8;"/>
     </g>
     <g id="line2d_88">
      <g>
       <use style="stroke:#000000;stroke-width:0.6;" x="144" xlink:href="#mbff2d796cf" y="355.68"/>
      </g>
     </g>
    </g>
    <g id="ytick_24">
     <g id="line2d_89">
      <path clip-path="url(#p60a4617e04)" d="M 144 339.84 
L 1036.8 339.84 
" style="fill:none;stroke:#4169e1;stroke-dasharray:0.8,1.32;stroke-dashoffset:0;stroke-width:0.8;"/>
     </g>
     <g id="line2d_90">
      <g>
       <use style="stroke:#000000;stroke-width:0.6;" x="144" xlink:href="#mbff2d796cf" y="339.84"/>
      </g>
     </g>
    </g>
    <g id="ytick_25">
     <g id="line2d_91">
      <path clip-path="url(#p60a4617e04)" d="M 144 308.16 
L 1036.8 308.16 
" style="fill:none;stroke:#4169e1;stroke-dasharray:0.8,1.32;stroke-dashoffset:0;stroke-width:0.8;"/>
     </g>
     <g id="line2d_92">
      <g>
       <use style="stroke:#000000;stroke-width:0.6;" x="144" xlink:href="#mbff2d796cf" y="308.16"/>
      </g>
     </g>
    </g>
    <g id="ytick_26">
     <g id="line2d_93">
      <path clip-path="url(#p60a4617e04)" d="M 144 292.32 
L 1036.8 292.32 
" style="fill:none;stroke:#4169e1;stroke-dasharray:0.8,1.32;stroke-dashoffset:0;stroke-width:0.8;"/>
     </g>
     <g id="line2d_94">
      <g>
       <use style="stroke:#000000;stroke-width:0.6;" x="144" xlink:href="#mbff2d796cf" y="292.32"/>
      </g>
     </g>
    </g>
    <g id="ytick_27">
     <g id="line2d_95">
      <path clip-path="url(#p60a4617e04)" d="M 144 276.48 
L 1036.8 276.48 
" style="fill:none;stroke:#4169e1;stroke-dasharray:0.8,1.32;stroke-dashoffset:0;stroke-width:0.8;"/>
     </g>
     <g id="line2d_96">
      <g>
       <use style="stroke:#000000;stroke-width:0.6;" x="144" xlink:href="#mbff2d796cf" y="276.48"/>
      </g>
     </g>
    </g>
    <g id="ytick_28">
     <g id="line2d_97">
      <path clip-path="url(#p60a4617e04)" d="M 144 260.64 
L 1036.8 260.64 
" style="fill:none;stroke:#4169e1;stroke-dasharray:0.8,1.32;stroke-dashoffset:0;stroke-width:0.8;"/>
     </g>
     <g id="line2d_98">
      <g>
       <use style="stroke:#000000;stroke-width:0.6;" x="144" xlink:href="#mbff2d796cf" y="260.64"/>
      </g>
     </g>
    </g>
    <g id="ytick_29">
     <g id="line2d_99">
      <path clip-path="url(#p60a4617e04)" d="M 144 228.96 
L 1036.8 228.96 
" style="fill:none;stroke:#4169e1;stroke-dasharray:0.8,1.32;stroke-dashoffset:0;stroke-width:0.8;"/>
     </g>
     <g id="line2d_100">
      <g>
       <use style="stroke:#000000;stroke-width:0.6;" x="144" xlink:href="#mbff2d796cf" y="228.96"/>
      </g>
     </g>
    </g>
    <g id="ytick_30">
     <g id="line2d_101">
      <path clip-path="url(#p60a4617e04)" d="M 144 213.12 
L 1036.8 213.12 
" style="fill:none;stroke:#4169e1;stroke-dasharray:0.8,1.32;stroke-dashoffset:0;stroke-width:0.8;"/>
     </g>
     <g id="line2d_102">
      <g>
       <use style="stroke:#000000;stroke-width:0.6;" x="144" xlink:href="#mbff2d796cf" y="213.12"/>
      </g>
     </g>
    </g>
    <g id="ytick_31">
     <g id="line2d_103">
      <path clip-path="url(#p60a4617e04)" d="M 144 197.28 
L 1036.8 197.28 
" style="fill:none;stroke:#4169e1;stroke-dasharray:0.8,1.32;stroke-dashoffset:0;stroke-width:0.8;"/>
     </g>
     <g id="line2d_104">
      <g>
       <use style="stroke:#000000;stroke-width:0.6;" x="144" xlink:href="#mbff2d796cf" y="197.28"/>
      </g>
     </g>
    </g>
    <g id="ytick_32">
     <g id="line2d_105">
      <path clip-path="url(#p60a4617e04)" d="M 144 181.44 
L 1036.8 181.44 
" style="fill:none;stroke:#4169e1;stroke-dasharray:0.8,1.32;stroke-dashoffset:0;stroke-width:0.8;"/>
     </g>
     <g id="line2d_106">
      <g>
       <use style="stroke:#000000;stroke-width:0.6;" x="144" xlink:href="#mbff2d796cf" y="181.44"/>
      </g>
     </g>
    </g>
    <g id="ytick_33">
     <g id="line2d_107">
      <path clip-path="url(#p60a4617e04)" d="M 144 149.76 
L 1036.8 149.76 
" style="fill:none;stroke:#4169e1;stroke-dasharray:0.8,1.32;stroke-dashoffset:0;stroke-width:0.8;"/>
     </g>
     <g id="line2d_108">
      <g>
       <use style="stroke:#000000;stroke-width:0.6;" x="144" xlink:href="#mbff2d796cf" y="149.76"/>
      </g>
     </g>
    </g>
    <g id="ytick_34">
     <g id="line2d_109">
      <path clip-path="url(#p60a4617e04)" d="M 144 133.92 
L 1036.8 133.92 
" style="fill:none;stroke:#4169e1;stroke-dasharray:0.8,1.32;stroke-dashoffset:0;stroke-width:0.8;"/>
     </g>
     <g id="line2d_110">
      <g>
       <use style="stroke:#000000;stroke-width:0.6;" x="144" xlink:href="#mbff2d796cf" y="133.92"/>
      </g>
     </g>
    </g>
    <g id="ytick_35">
     <g id="line2d_111">
      <path clip-path="url(#p60a4617e04)" d="M 144 118.08 
L 1036.8 118.08 
" style="fill:none;stroke:#4169e1;stroke-dasharray:0.8,1.32;stroke-dashoffset:0;stroke-width:0.8;"/>
     </g>
     <g id="line2d_112">
      <g>
       <use style="stroke:#000000;stroke-width:0.6;" x="144" xlink:href="#mbff2d796cf" y="118.08"/>
      </g>
     </g>
    </g>
    <g id="ytick_36">
     <g id="line2d_113">
      <path clip-path="url(#p60a4617e04)" d="M 144 102.24 
L 1036.8 102.24 
" style="fill:none;stroke:#4169e1;stroke-dasharray:0.8,1.32;stroke-dashoffset:0;stroke-width:0.8;"/>
     </g>
     <g id="line2d_114">
      <g>
       <use style="stroke:#000000;stroke-width:0.6;" x="144" xlink:href="#mbff2d796cf" y="102.24"/>
      </g>
     </g>
    </g>
    <g id="text_16">
     <!-- Напряжение, В -->
     <g transform="translate(115.017187 403.659375)rotate(-90)scale(0.1 -0.1)">
      <defs>
       <path d="M 628 4666 
L 1259 4666 
L 1259 2753 
L 3553 2753 
L 3553 4666 
L 4184 4666 
L 4184 0 
L 3553 0 
L 3553 2222 
L 1259 2222 
L 1259 0 
L 628 0 
L 628 4666 
z
" id="DejaVuSans-41d" transform="scale(0.015625)"/>
       <path d="M 2194 1759 
Q 1497 1759 1228 1600 
Q 959 1441 959 1056 
Q 959 750 1161 570 
Q 1363 391 1709 391 
Q 2188 391 2477 730 
Q 2766 1069 2766 1631 
L 2766 1759 
L 2194 1759 
z
M 3341 1997 
L 3341 0 
L 2766 0 
L 2766 531 
Q 2569 213 2275 61 
Q 1981 -91 1556 -91 
Q 1019 -91 701 211 
Q 384 513 384 1019 
Q 384 1609 779 1909 
Q 1175 2209 1959 2209 
L 2766 2209 
L 2766 2266 
Q 2766 2663 2505 2880 
Q 2244 3097 1772 3097 
Q 1472 3097 1187 3025 
Q 903 2953 641 2809 
L 641 3341 
Q 956 3463 1253 3523 
Q 1550 3584 1831 3584 
Q 2591 3584 2966 3190 
Q 3341 2797 3341 1997 
z
" id="DejaVuSans-430" transform="scale(0.015625)"/>
       <path d="M 3603 3500 
L 3603 0 
L 3025 0 
L 3025 3041 
L 1159 3041 
L 1159 0 
L 581 0 
L 581 3500 
L 3603 3500 
z
" id="DejaVuSans-43f" transform="scale(0.015625)"/>
       <path d="M 2597 3500 
L 3169 3500 
L 3169 1856 
L 4697 3500 
L 5366 3500 
L 4109 2153 
L 5547 0 
L 4931 0 
L 3753 1769 
L 3169 1141 
L 3169 0 
L 2597 0 
L 2597 1141 
L 2013 1769 
L 834 0 
L 219 0 
L 1656 2153 
L 400 3500 
L 1069 3500 
L 2597 1856 
L 2597 3500 
z
" id="DejaVuSans-436" transform="scale(0.015625)"/>
       <path d="M 581 3500 
L 1159 3500 
L 1159 2072 
L 3025 2072 
L 3025 3500 
L 3603 3500 
L 3603 0 
L 3025 0 
L 3025 1613 
L 1159 1613 
L 1159 0 
L 581 0 
L 581 3500 
z
" id="DejaVuSans-43d" transform="scale(0.015625)"/>
       <path d="M 3578 3500 
L 3578 0 
L 3006 0 
L 3006 2809 
L 1319 0 
L 581 0 
L 581 3500 
L 1153 3500 
L 1153 697 
L 2838 3500 
L 3578 3500 
z
" id="DejaVuSans-438" transform="scale(0.015625)"/>
      </defs>
      <use xlink:href="#DejaVuSans-41d"/>
      <use x="75.195312" xlink:href="#DejaVuSans-430"/>
      <use x="136.474609" xlink:href="#DejaVuSans-43f"/>
      <use x="201.855469" xlink:href="#DejaVuSans-440"/>
      <use x="265.332031" xlink:href="#DejaVuSans-44f"/>
      <use x="325.488281" xlink:href="#DejaVuSans-436"/>
      <use x="415.576172" xlink:href="#DejaVuSans-435"/>
      <use x="477.099609" xlink:href="#DejaVuSans-43d"/>
      <use x="542.480469" xlink:href="#DejaVuSans-438"/>
      <use x="607.470703" xlink:href="#DejaVuSans-435"/>
      <use x="668.994141" xlink:href="#DejaVuSans-2c"/>
      <use x="700.78125" xlink:href="#DejaVuSans-20"/>
      <use x="732.568359" xlink:href="#DejaVuSans-412"/>
     </g>
    </g>
   </g>
   <g id="line2d_115">
    <path clip-path="url(#p60a4617e04)" d="M 144 638.758125 
L 144.98208 630.590625 
L 147.92832 618.339375 
L 148.9104 610.171875 
L 150.87456 602.004375 
L 151.85664 593.836875 
L 152.83872 593.836875 
L 153.8208 585.669375 
L 154.80288 585.669375 
L 155.78496 577.501875 
L 156.76704 577.501875 
L 157.74912 565.250625 
L 170.51616 512.161875 
L 171.49824 512.161875 
L 172.48032 503.994375 
L 176.40864 487.659375 
L 177.39072 487.659375 
L 178.3728 479.491875 
L 179.35488 479.491875 
L 187.21152 446.821875 
L 188.1936 446.821875 
L 192.12192 430.486875 
L 193.104 430.486875 
L 197.03232 414.151875 
L 198.0144 414.151875 
L 199.97856 405.984375 
L 200.96064 405.984375 
L 202.9248 397.816875 
L 203.90688 397.816875 
L 205.87104 389.649375 
L 206.85312 389.649375 
L 208.81728 381.481875 
L 210.78144 381.481875 
L 211.76352 373.314375 
L 212.7456 373.314375 
L 213.72768 369.230625 
L 214.70976 369.230625 
L 216.67392 361.063125 
L 217.656 361.063125 
L 218.63808 356.979375 
L 219.62016 356.979375 
L 221.58432 348.811875 
L 223.54848 348.811875 
L 225.51264 340.644375 
L 227.4768 340.644375 
L 229.44096 332.476875 
L 230.42304 332.476875 
L 231.40512 328.393125 
L 232.3872 328.393125 
L 233.36928 324.309375 
L 234.35136 324.309375 
L 235.33344 320.225625 
L 236.31552 320.225625 
L 237.2976 316.141875 
L 240.24384 316.141875 
L 241.22592 307.974375 
L 243.19008 307.974375 
L 244.17216 303.890625 
L 245.15424 303.890625 
L 246.13632 299.806875 
L 248.10048 299.806875 
L 249.08256 295.723125 
L 250.06464 295.723125 
L 251.04672 291.639375 
L 252.0288 291.639375 
L 253.01088 287.555625 
L 255.95712 287.555625 
L 257.92128 279.388125 
L 259.88544 279.388125 
L 260.86752 275.304375 
L 262.83168 275.304375 
L 263.81376 271.220625 
L 264.79584 271.220625 
L 265.77792 267.136875 
L 268.72416 267.136875 
L 269.70624 263.053125 
L 270.68832 263.053125 
L 271.6704 258.969375 
L 273.63456 258.969375 
L 274.61664 254.885625 
L 277.56288 254.885625 
L 279.52704 246.718125 
L 285.41952 246.718125 
L 287.38368 238.550625 
L 291.312 238.550625 
L 292.29408 234.466875 
L 295.24032 234.466875 
L 296.2224 230.383125 
L 298.18656 230.383125 
L 299.16864 226.299375 
L 301.1328 226.299375 
L 302.11488 222.215625 
L 306.0432 222.215625 
L 307.02528 218.131875 
L 310.9536 218.131875 
L 311.93568 214.048125 
L 315.864 214.048125 
L 316.84608 209.964375 
L 320.7744 209.964375 
L 321.75648 205.880625 
L 323.72064 205.880625 
L 324.70272 201.796875 
L 325.6848 205.880625 
L 326.66688 201.796875 
L 329.61312 201.796875 
L 330.5952 197.713125 
L 337.46976 197.713125 
L 338.45184 193.629375 
L 343.36224 193.629375 
L 344.34432 189.545625 
L 349.25472 189.545625 
L 350.2368 185.461875 
L 354.16512 185.461875 
L 355.1472 181.378125 
L 365.95008 181.378125 
L 366.93216 177.294375 
L 374.7888 177.294375 
L 375.77088 173.210625 
L 376.75296 177.294375 
L 377.73504 173.210625 
L 382.64544 173.210625 
L 383.62752 169.126875 
L 384.6096 173.210625 
L 385.59168 169.126875 
L 394.4304 169.126875 
L 395.41248 165.043125 
L 404.2512 165.043125 
L 405.23328 160.959375 
L 414.072 160.959375 
L 415.05408 156.875625 
L 416.03616 160.959375 
L 417.01824 160.959375 
L 418.00032 156.875625 
L 426.83904 156.875625 
L 427.82112 152.791875 
L 428.8032 156.875625 
L 429.78528 156.875625 
L 430.76736 152.791875 
L 431.74944 156.875625 
L 432.73152 156.875625 
L 433.7136 152.791875 
L 441.57024 152.791875 
L 442.55232 148.708125 
L 443.5344 152.791875 
L 444.51648 152.791875 
L 445.49856 148.708125 
L 446.48064 148.708125 
L 447.46272 152.791875 
L 450.40896 152.791875 
L 451.39104 148.708125 
L 470.05056 148.708125 
L 471.03264 144.624375 
L 472.01472 148.708125 
L 472.9968 144.624375 
L 494.60256 144.624375 
L 495.58464 140.540625 
L 496.56672 140.540625 
L 497.5488 144.624375 
L 498.53088 144.624375 
L 499.51296 140.540625 
L 500.49504 140.540625 
L 501.47712 144.624375 
L 502.4592 140.540625 
L 519.15456 140.540625 
L 520.13664 136.456875 
L 521.11872 144.624375 
L 522.1008 148.708125 
L 523.08288 148.708125 
L 524.06496 156.875625 
L 526.02912 165.043125 
L 527.0112 173.210625 
L 527.99328 173.210625 
L 528.97536 181.378125 
L 529.95744 181.378125 
L 530.93952 189.545625 
L 532.90368 197.713125 
L 533.88576 197.713125 
L 534.86784 205.880625 
L 535.84992 205.880625 
L 545.67072 246.718125 
L 546.6528 246.718125 
L 551.5632 267.136875 
L 552.54528 267.136875 
L 553.52736 275.304375 
L 554.50944 275.304375 
L 555.49152 279.388125 
L 556.4736 279.388125 
L 561.384 299.806875 
L 562.36608 299.806875 
L 566.2944 316.141875 
L 567.27648 316.141875 
L 569.24064 324.309375 
L 570.22272 324.309375 
L 571.2048 328.393125 
L 572.18688 328.393125 
L 575.13312 340.644375 
L 576.1152 340.644375 
L 577.09728 344.728125 
L 578.07936 344.728125 
L 580.04352 352.895625 
L 581.0256 352.895625 
L 582.98976 361.063125 
L 583.97184 361.063125 
L 584.95392 365.146875 
L 585.936 365.146875 
L 586.91808 369.230625 
L 587.90016 369.230625 
L 588.88224 373.314375 
L 589.86432 373.314375 
L 590.8464 377.398125 
L 591.82848 377.398125 
L 592.81056 381.481875 
L 593.79264 381.481875 
L 594.77472 385.565625 
L 595.7568 385.565625 
L 597.72096 393.733125 
L 599.68512 393.733125 
L 600.6672 397.816875 
L 601.64928 397.816875 
L 602.63136 401.900625 
L 603.61344 401.900625 
L 605.5776 410.068125 
L 607.54176 410.068125 
L 608.52384 414.151875 
L 609.50592 414.151875 
L 610.488 418.235625 
L 611.47008 418.235625 
L 612.45216 422.319375 
L 613.43424 422.319375 
L 614.41632 426.403125 
L 616.38048 426.403125 
L 617.36256 430.486875 
L 618.34464 430.486875 
L 619.32672 434.570625 
L 620.3088 434.570625 
L 621.29088 438.654375 
L 622.27296 438.654375 
L 623.25504 442.738125 
L 626.20128 442.738125 
L 628.16544 450.905625 
L 630.1296 450.905625 
L 631.11168 454.989375 
L 632.09376 454.989375 
L 633.07584 459.073125 
L 636.02208 459.073125 
L 637.00416 463.156875 
L 637.98624 463.156875 
L 638.96832 467.240625 
L 640.93248 467.240625 
L 641.91456 471.324375 
L 642.89664 471.324375 
L 643.87872 475.408125 
L 645.84288 475.408125 
L 646.82496 479.491875 
L 649.7712 479.491875 
L 650.75328 483.575625 
L 652.71744 483.575625 
L 653.69952 487.659375 
L 655.66368 487.659375 
L 656.64576 491.743125 
L 659.592 491.743125 
L 660.57408 495.826875 
L 661.55616 495.826875 
L 662.53824 499.910625 
L 665.48448 499.910625 
L 666.46656 503.994375 
L 668.43072 503.994375 
L 669.4128 508.078125 
L 670.39488 508.078125 
L 671.37696 512.161875 
L 677.26944 512.161875 
L 678.25152 516.245625 
L 680.21568 516.245625 
L 681.19776 520.329375 
L 683.16192 520.329375 
L 684.144 524.413125 
L 688.07232 524.413125 
L 689.0544 528.496875 
L 692.00064 528.496875 
L 692.98272 532.580625 
L 694.94688 532.580625 
L 695.92896 536.664375 
L 699.85728 536.664375 
L 700.83936 540.748125 
L 704.76768 540.748125 
L 705.74976 544.831875 
L 706.73184 540.748125 
L 707.71392 544.831875 
L 709.67808 544.831875 
L 710.66016 548.915625 
L 714.58848 548.915625 
L 715.57056 552.999375 
L 719.49888 552.999375 
L 720.48096 557.083125 
L 724.40928 557.083125 
L 725.39136 561.166875 
L 731.28384 561.166875 
L 732.26592 565.250625 
L 736.19424 565.250625 
L 737.17632 569.334375 
L 741.10464 569.334375 
L 742.08672 573.418125 
L 743.0688 569.334375 
L 744.05088 573.418125 
L 746.99712 573.418125 
L 747.9792 577.501875 
L 757.8 577.501875 
L 758.78208 581.585625 
L 765.65664 581.585625 
L 766.63872 585.669375 
L 771.54912 585.669375 
L 772.5312 589.753125 
L 781.36992 589.753125 
L 782.352 593.836875 
L 792.1728 593.836875 
L 793.15488 597.920625 
L 801.01152 597.920625 
L 801.9936 602.004375 
L 802.97568 597.920625 
L 803.95776 602.004375 
L 814.76064 602.004375 
L 815.74272 606.088125 
L 824.58144 606.088125 
L 825.56352 610.171875 
L 841.2768 610.171875 
L 842.25888 614.255625 
L 857.97216 614.255625 
L 858.95424 618.339375 
L 859.93632 614.255625 
L 860.9184 618.339375 
L 876.63168 618.339375 
L 877.61376 622.423125 
L 898.23744 622.423125 
L 899.21952 626.506875 
L 900.2016 622.423125 
L 903.14784 622.423125 
L 904.12992 626.506875 
L 905.112 626.506875 
L 906.09408 622.423125 
L 907.07616 626.506875 
L 926.71776 626.506875 
L 927.69984 630.590625 
L 928.68192 626.506875 
L 936.53856 626.506875 
L 937.52064 630.590625 
L 939.4848 630.590625 
L 940.46688 626.506875 
L 941.44896 630.590625 
L 967.96512 630.590625 
L 968.9472 634.674375 
L 969.92928 630.590625 
L 971.89344 630.590625 
L 972.87552 634.674375 
L 1023.94368 634.674375 
L 1024.92576 638.758125 
L 1024.92576 638.758125 
" style="fill:none;stroke:#ffc0cb;stroke-linecap:square;stroke-width:3;"/>
    <defs>
     <path d="M 0 3 
C 0.795609 3 1.55874 2.683901 2.12132 2.12132 
C 2.683901 1.55874 3 0.795609 3 0 
C 3 -0.795609 2.683901 -1.55874 2.12132 -2.12132 
C 1.55874 -2.683901 0.795609 -3 0 -3 
C -0.795609 -3 -1.55874 -2.683901 -2.12132 -2.12132 
C -2.683901 -1.55874 -3 -0.795609 -3 0 
C -3 0.795609 -2.683901 1.55874 -2.12132 2.12132 
C -1.55874 2.683901 -0.795609 3 0 3 
z
" id="mfe27a3f783" style="stroke:#ffc0cb;"/>
    </defs>
    <g clip-path="url(#p60a4617e04)">
     <use style="fill:#ff0000;stroke:#ffc0cb;" x="144" xlink:href="#mfe27a3f783" y="638.758125"/>
     <use style="fill:#ff0000;stroke:#ffc0cb;" x="183.2832" xlink:href="#mfe27a3f783" y="463.156875"/>
     <use style="fill:#ff0000;stroke:#ffc0cb;" x="222.5664" xlink:href="#mfe27a3f783" y="348.811875"/>
     <use style="fill:#ff0000;stroke:#ffc0cb;" x="261.8496" xlink:href="#mfe27a3f783" y="275.304375"/>
     <use style="fill:#ff0000;stroke:#ffc0cb;" x="301.1328" xlink:href="#mfe27a3f783" y="226.299375"/>
     <use style="fill:#ff0000;stroke:#ffc0cb;" x="340.416" xlink:href="#mfe27a3f783" y="193.629375"/>
     <use style="fill:#ff0000;stroke:#ffc0cb;" x="379.6992" xlink:href="#mfe27a3f783" y="173.210625"/>
     <use style="fill:#ff0000;stroke:#ffc0cb;" x="418.9824" xlink:href="#mfe27a3f783" y="156.875625"/>
     <use style="fill:#ff0000;stroke:#ffc0cb;" x="458.2656" xlink:href="#mfe27a3f783" y="148.708125"/>
     <use style="fill:#ff0000;stroke:#ffc0cb;" x="497.5488" xlink:href="#mfe27a3f783" y="144.624375"/>
     <use style="fill:#ff0000;stroke:#ffc0cb;" x="536.832" xlink:href="#mfe27a3f783" y="209.964375"/>
     <use style="fill:#ff0000;stroke:#ffc0cb;" x="576.1152" xlink:href="#mfe27a3f783" y="340.644375"/>
     <use style="fill:#ff0000;stroke:#ffc0cb;" x="615.3984" xlink:href="#mfe27a3f783" y="426.403125"/>
     <use style="fill:#ff0000;stroke:#ffc0cb;" x="654.6816" xlink:href="#mfe27a3f783" y="487.659375"/>
     <use style="fill:#ff0000;stroke:#ffc0cb;" x="693.9648" xlink:href="#mfe27a3f783" y="532.580625"/>
     <use style="fill:#ff0000;stroke:#ffc0cb;" x="733.248" xlink:href="#mfe27a3f783" y="565.250625"/>
     <use style="fill:#ff0000;stroke:#ffc0cb;" x="772.5312" xlink:href="#mfe27a3f783" y="589.753125"/>
     <use style="fill:#ff0000;stroke:#ffc0cb;" x="811.8144" xlink:href="#mfe27a3f783" y="602.004375"/>
     <use style="fill:#ff0000;stroke:#ffc0cb;" x="851.0976" xlink:href="#mfe27a3f783" y="614.255625"/>
     <use style="fill:#ff0000;stroke:#ffc0cb;" x="890.3808" xlink:href="#mfe27a3f783" y="622.423125"/>
     <use style="fill:#ff0000;stroke:#ffc0cb;" x="929.664" xlink:href="#mfe27a3f783" y="626.506875"/>
     <use style="fill:#ff0000;stroke:#ffc0cb;" x="968.9472" xlink:href="#mfe27a3f783" y="634.674375"/>
     <use style="fill:#ff0000;stroke:#ffc0cb;" x="1008.2304" xlink:href="#mfe27a3f783" y="634.674375"/>
    </g>
   </g>
   <g id="patch_3">
    <path d="M 144 640.8 
L 144 86.4 
" style="fill:none;stroke:#000000;stroke-linecap:square;stroke-linejoin:miter;stroke-width:0.8;"/>
   </g>
   <g id="patch_4">
    <path d="M 1036.8 640.8 
L 1036.8 86.4 
" style="fill:none;stroke:#000000;stroke-linecap:square;stroke-linejoin:miter;stroke-width:0.8;"/>
   </g>
   <g id="patch_5">
    <path d="M 144 640.8 
L 1036.8 640.8 
" style="fill:none;stroke:#000000;stroke-linecap:square;stroke-linejoin:miter;stroke-width:0.8;"/>
   </g>
   <g id="patch_6">
    <path d="M 144 86.4 
L 1036.8 86.4 
" style="fill:none;stroke:#000000;stroke-linecap:square;stroke-linejoin:miter;stroke-width:0.8;"/>
   </g>
   <g id="text_17">
    <!-- Время зарядки 4.213 -->
    <g transform="translate(772.5312 309.428438)scale(0.1 -0.1)">
     <defs>
      <path d="M 2206 1888 
Q 2594 1813 2809 1584 
Q 3025 1356 3025 1019 
Q 3025 478 2622 193 
Q 2219 -91 1475 -91 
Q 1225 -91 961 -47 
Q 697 -3 416 84 
L 416 619 
Q 638 503 903 445 
Q 1169 388 1459 388 
Q 1931 388 2195 563 
Q 2459 738 2459 1019 
Q 2459 1294 2225 1461 
Q 1991 1628 1563 1628 
L 1100 1628 
L 1100 2103 
L 1584 2103 
Q 1947 2103 2158 2242 
Q 2369 2381 2369 2600 
Q 2369 2800 2151 2944 
Q 1934 3088 1563 3088 
Q 1341 3088 1089 3047 
Q 838 3006 534 2916 
L 534 3438 
Q 841 3513 1106 3550 
Q 1372 3588 1609 3588 
Q 2222 3588 2576 3342 
Q 2931 3097 2931 2656 
Q 2931 2366 2743 2164 
Q 2556 1963 2206 1888 
z
" id="DejaVuSans-437" transform="scale(0.015625)"/>
      <path d="M 1384 459 
L 3053 459 
L 3053 3041 
L 1844 3041 
L 1844 2603 
Q 1844 1316 1475 628 
L 1384 459 
z
M 550 459 
Q 834 584 959 850 
Q 1266 1509 1266 2838 
L 1266 3500 
L 3631 3500 
L 3631 459 
L 4091 459 
L 4091 -884 
L 3631 -884 
L 3631 0 
L 794 0 
L 794 -884 
L 334 -884 
L 334 459 
L 550 459 
z
" id="DejaVuSans-434" transform="scale(0.015625)"/>
      <path d="M 581 3500 
L 1153 3500 
L 1153 1856 
L 2775 3500 
L 3481 3500 
L 2144 2147 
L 3653 0 
L 3009 0 
L 1769 1766 
L 1153 1141 
L 1153 0 
L 581 0 
L 581 3500 
z
" id="DejaVuSans-43a" transform="scale(0.015625)"/>
     </defs>
     <use xlink:href="#DejaVuSans-412"/>
     <use x="68.603516" xlink:href="#DejaVuSans-440"/>
     <use x="132.080078" xlink:href="#DejaVuSans-435"/>
     <use x="193.603516" xlink:href="#DejaVuSans-43c"/>
     <use x="269.042969" xlink:href="#DejaVuSans-44f"/>
     <use x="329.199219" xlink:href="#DejaVuSans-20"/>
     <use x="360.986328" xlink:href="#DejaVuSans-437"/>
     <use x="414.160156" xlink:href="#DejaVuSans-430"/>
     <use x="475.439453" xlink:href="#DejaVuSans-440"/>
     <use x="538.916016" xlink:href="#DejaVuSans-44f"/>
     <use x="599.072266" xlink:href="#DejaVuSans-434"/>
     <use x="668.212891" xlink:href="#DejaVuSans-43a"/>
     <use x="728.613281" xlink:href="#DejaVuSans-438"/>
     <use x="793.603516" xlink:href="#DejaVuSans-20"/>
     <use x="825.390625" xlink:href="#DejaVuSans-34"/>
     <use x="889.013672" xlink:href="#DejaVuSans-2e"/>
     <use x="920.800781" xlink:href="#DejaVuSans-32"/>
     <use x="984.423828" xlink:href="#DejaVuSans-31"/>
     <use x="1048.046875" xlink:href="#DejaVuSans-33"/>
    </g>
   </g>
   <g id="text_18">
    <!-- Время разрядки 5.654 -->
    <g transform="translate(772.5312 388.628438)scale(0.1 -0.1)">
     <use xlink:href="#DejaVuSans-412"/>
     <use x="68.603516" xlink:href="#DejaVuSans-440"/>
     <use x="132.080078" xlink:href="#DejaVuSans-435"/>
     <use x="193.603516" xlink:href="#DejaVuSans-43c"/>
     <use x="269.042969" xlink:href="#DejaVuSans-44f"/>
     <use x="329.199219" xlink:href="#DejaVuSans-20"/>
     <use x="360.986328" xlink:href="#DejaVuSans-440"/>
     <use x="424.462891" xlink:href="#DejaVuSans-430"/>
     <use x="485.742188" xlink:href="#DejaVuSans-437"/>
     <use x="538.916016" xlink:href="#DejaVuSans-440"/>
     <use x="602.392578" xlink:href="#DejaVuSans-44f"/>
     <use x="662.548828" xlink:href="#DejaVuSans-434"/>
     <use x="731.689453" xlink:href="#DejaVuSans-43a"/>
     <use x="792.089844" xlink:href="#DejaVuSans-438"/>
     <use x="857.080078" xlink:href="#DejaVuSans-20"/>
     <use x="888.867188" xlink:href="#DejaVuSans-35"/>
     <use x="952.490234" xlink:href="#DejaVuSans-2e"/>
     <use x="984.277344" xlink:href="#DejaVuSans-36"/>
     <use x="1047.900391" xlink:href="#DejaVuSans-35"/>
     <use x="1111.523438" xlink:href="#DejaVuSans-34"/>
    </g>
   </g>
   <g id="text_19">
    <!-- Процесс заряда и -->
    <g transform="translate(534.21 53.52525)scale(0.12 -0.12)">
     <defs>
      <path d="M 4184 4666 
L 4184 0 
L 3553 0 
L 3553 4134 
L 1259 4134 
L 1259 0 
L 628 0 
L 628 4666 
L 4184 4666 
z
" id="DejaVuSans-41f" transform="scale(0.015625)"/>
      <path d="M 1959 3097 
Q 1497 3097 1228 2736 
Q 959 2375 959 1747 
Q 959 1119 1226 758 
Q 1494 397 1959 397 
Q 2419 397 2687 759 
Q 2956 1122 2956 1747 
Q 2956 2369 2687 2733 
Q 2419 3097 1959 3097 
z
M 1959 3584 
Q 2709 3584 3137 3096 
Q 3566 2609 3566 1747 
Q 3566 888 3137 398 
Q 2709 -91 1959 -91 
Q 1206 -91 779 398 
Q 353 888 353 1747 
Q 353 2609 779 3096 
Q 1206 3584 1959 3584 
z
" id="DejaVuSans-43e" transform="scale(0.015625)"/>
      <path d="M 3603 0 
L 581 0 
L 581 3500 
L 1159 3500 
L 1159 459 
L 3025 459 
L 3025 3500 
L 3603 3500 
L 3603 459 
L 4063 459 
L 4063 -884 
L 3603 -884 
L 3603 0 
z
" id="DejaVuSans-446" transform="scale(0.015625)"/>
      <path d="M 3122 3366 
L 3122 2828 
Q 2878 2963 2633 3030 
Q 2388 3097 2138 3097 
Q 1578 3097 1268 2742 
Q 959 2388 959 1747 
Q 959 1106 1268 751 
Q 1578 397 2138 397 
Q 2388 397 2633 464 
Q 2878 531 3122 666 
L 3122 134 
Q 2881 22 2623 -34 
Q 2366 -91 2075 -91 
Q 1284 -91 818 406 
Q 353 903 353 1747 
Q 353 2603 823 3093 
Q 1294 3584 2113 3584 
Q 2378 3584 2631 3529 
Q 2884 3475 3122 3366 
z
" id="DejaVuSans-441" transform="scale(0.015625)"/>
     </defs>
     <use xlink:href="#DejaVuSans-41f"/>
     <use x="75.195312" xlink:href="#DejaVuSans-440"/>
     <use x="138.671875" xlink:href="#DejaVuSans-43e"/>
     <use x="199.853516" xlink:href="#DejaVuSans-446"/>
     <use x="267.919922" xlink:href="#DejaVuSans-435"/>
     <use x="329.443359" xlink:href="#DejaVuSans-441"/>
     <use x="384.423828" xlink:href="#DejaVuSans-441"/>
     <use x="439.404297" xlink:href="#DejaVuSans-20"/>
     <use x="471.191406" xlink:href="#DejaVuSans-437"/>
     <use x="524.365234" xlink:href="#DejaVuSans-430"/>
     <use x="585.644531" xlink:href="#DejaVuSans-440"/>
     <use x="649.121094" xlink:href="#DejaVuSans-44f"/>
     <use x="709.277344" xlink:href="#DejaVuSans-434"/>
     <use x="778.417969" xlink:href="#DejaVuSans-430"/>
     <use x="839.697266" xlink:href="#DejaVuSans-20"/>
     <use x="871.484375" xlink:href="#DejaVuSans-438"/>
    </g>
    <!-- разряда конденсатора -->
    <g transform="translate(517.964062 66.962625)scale(0.12 -0.12)">
     <defs>
      <path d="M 188 3500 
L 3541 3500 
L 3541 3041 
L 2147 3041 
L 2147 0 
L 1581 0 
L 1581 3041 
L 188 3041 
L 188 3500 
z
" id="DejaVuSans-442" transform="scale(0.015625)"/>
     </defs>
     <use xlink:href="#DejaVuSans-440"/>
     <use x="63.476562" xlink:href="#DejaVuSans-430"/>
     <use x="124.755859" xlink:href="#DejaVuSans-437"/>
     <use x="177.929688" xlink:href="#DejaVuSans-440"/>
     <use x="241.40625" xlink:href="#DejaVuSans-44f"/>
     <use x="301.5625" xlink:href="#DejaVuSans-434"/>
     <use x="370.703125" xlink:href="#DejaVuSans-430"/>
     <use x="431.982422" xlink:href="#DejaVuSans-20"/>
     <use x="463.769531" xlink:href="#DejaVuSans-43a"/>
     <use x="524.169922" xlink:href="#DejaVuSans-43e"/>
     <use x="585.351562" xlink:href="#DejaVuSans-43d"/>
     <use x="650.732422" xlink:href="#DejaVuSans-434"/>
     <use x="719.873047" xlink:href="#DejaVuSans-435"/>
     <use x="781.396484" xlink:href="#DejaVuSans-43d"/>
     <use x="846.777344" xlink:href="#DejaVuSans-441"/>
     <use x="901.757812" xlink:href="#DejaVuSans-430"/>
     <use x="963.037109" xlink:href="#DejaVuSans-442"/>
     <use x="1021.289062" xlink:href="#DejaVuSans-43e"/>
     <use x="1082.470703" xlink:href="#DejaVuSans-440"/>
     <use x="1145.947266" xlink:href="#DejaVuSans-430"/>
    </g>
    <!-- в RC-цепочке -->
    <g transform="translate(548.503125 80.4)scale(0.12 -0.12)">
     <defs>
      <path d="M 1156 1613 
L 1156 459 
L 1975 459 
Q 2369 459 2575 607 
Q 2781 756 2781 1038 
Q 2781 1319 2575 1466 
Q 2369 1613 1975 1613 
L 1156 1613 
z
M 1156 3041 
L 1156 2072 
L 1913 2072 
Q 2238 2072 2444 2201 
Q 2650 2331 2650 2563 
Q 2650 2794 2444 2917 
Q 2238 3041 1913 3041 
L 1156 3041 
z
M 581 3500 
L 1950 3500 
Q 2566 3500 2897 3275 
Q 3228 3050 3228 2634 
Q 3228 2313 3059 2123 
Q 2891 1934 2559 1888 
Q 2956 1813 3175 1575 
Q 3394 1338 3394 981 
Q 3394 513 3033 256 
Q 2672 0 2003 0 
L 581 0 
L 581 3500 
z
" id="DejaVuSans-432" transform="scale(0.015625)"/>
      <path d="M 2841 2188 
Q 3044 2119 3236 1894 
Q 3428 1669 3622 1275 
L 4263 0 
L 3584 0 
L 2988 1197 
Q 2756 1666 2539 1819 
Q 2322 1972 1947 1972 
L 1259 1972 
L 1259 0 
L 628 0 
L 628 4666 
L 2053 4666 
Q 2853 4666 3247 4331 
Q 3641 3997 3641 3322 
Q 3641 2881 3436 2590 
Q 3231 2300 2841 2188 
z
M 1259 4147 
L 1259 2491 
L 2053 2491 
Q 2509 2491 2742 2702 
Q 2975 2913 2975 3322 
Q 2975 3731 2742 3939 
Q 2509 4147 2053 4147 
L 1259 4147 
z
" id="DejaVuSans-52" transform="scale(0.015625)"/>
      <path d="M 4122 4306 
L 4122 3641 
Q 3803 3938 3442 4084 
Q 3081 4231 2675 4231 
Q 1875 4231 1450 3742 
Q 1025 3253 1025 2328 
Q 1025 1406 1450 917 
Q 1875 428 2675 428 
Q 3081 428 3442 575 
Q 3803 722 4122 1019 
L 4122 359 
Q 3791 134 3420 21 
Q 3050 -91 2638 -91 
Q 1578 -91 968 557 
Q 359 1206 359 2328 
Q 359 3453 968 4101 
Q 1578 4750 2638 4750 
Q 3056 4750 3426 4639 
Q 3797 4528 4122 4306 
z
" id="DejaVuSans-43" transform="scale(0.015625)"/>
      <path d="M 313 2009 
L 1997 2009 
L 1997 1497 
L 313 1497 
L 313 2009 
z
" id="DejaVuSans-2d" transform="scale(0.015625)"/>
      <path d="M 2625 0 
L 2625 1472 
L 1553 1472 
Q 1075 1472 756 1769 
Q 469 2038 469 2613 
L 469 3500 
L 1044 3500 
L 1044 2666 
Q 1044 2300 1206 2116 
Q 1372 1931 1697 1931 
L 2625 1931 
L 2625 3500 
L 3200 3500 
L 3200 0 
L 2625 0 
z
" id="DejaVuSans-447" transform="scale(0.015625)"/>
     </defs>
     <use xlink:href="#DejaVuSans-432"/>
     <use x="58.935547" xlink:href="#DejaVuSans-20"/>
     <use x="90.722656" xlink:href="#DejaVuSans-52"/>
     <use x="155.205078" xlink:href="#DejaVuSans-43"/>
     <use x="225.029297" xlink:href="#DejaVuSans-2d"/>
     <use x="261.113281" xlink:href="#DejaVuSans-446"/>
     <use x="329.179688" xlink:href="#DejaVuSans-435"/>
     <use x="390.703125" xlink:href="#DejaVuSans-43f"/>
     <use x="456.083984" xlink:href="#DejaVuSans-43e"/>
     <use x="517.265625" xlink:href="#DejaVuSans-447"/>
     <use x="576.347656" xlink:href="#DejaVuSans-43a"/>
     <use x="636.748047" xlink:href="#DejaVuSans-435"/>
    </g>
   </g>
   <g id="legend_1">
    <g id="patch_7">
     <path d="M 979.235937 123.75625 
L 1029.8 123.75625 
Q 1031.8 123.75625 1031.8 121.75625 
L 1031.8 93.4 
Q 1031.8 91.4 1029.8 91.4 
L 979.235937 91.4 
Q 977.235937 91.4 977.235937 93.4 
L 977.235937 121.75625 
Q 977.235937 123.75625 979.235937 123.75625 
z
" style="fill:#fdf5e6;opacity:0.8;stroke:#ff0000;stroke-linejoin:miter;"/>
    </g>
    <g id="text_20">
     <!-- Данные -->
     <g transform="translate(983.985937 102.998437)scale(0.1 -0.1)">
      <defs>
       <path d="M 1459 531 
L 3522 531 
L 3522 4134 
L 2006 4134 
L 2006 3472 
Q 2006 1913 1656 878 
Q 1584 666 1459 531 
z
M 538 531 
Q 956 728 1075 1103 
Q 1378 2066 1378 3784 
L 1378 4666 
L 4153 4666 
L 4153 531 
L 4684 531 
L 4684 -1003 
L 4153 -1003 
L 4153 0 
L 847 0 
L 847 -1003 
L 316 -1003 
L 316 531 
L 538 531 
z
" id="DejaVuSans-414" transform="scale(0.015625)"/>
       <path d="M 3907 3500 
L 4482 3500 
L 4482 0 
L 3907 0 
L 3907 3500 
z
M 4195 3584 
L 4195 3584 
z
M 2781 1038 
Q 2781 1319 2576 1466 
Q 2372 1613 1978 1613 
L 1159 1613 
L 1159 459 
L 1978 459 
Q 2372 459 2576 607 
Q 2781 756 2781 1038 
z
M 581 3500 
L 1159 3500 
L 1159 2072 
L 2003 2072 
Q 2672 2072 3033 1817 
Q 3394 1563 3394 1038 
Q 3394 513 3033 256 
Q 2672 0 2003 0 
L 581 0 
L 581 3500 
z
" id="DejaVuSans-44b" transform="scale(0.015625)"/>
      </defs>
      <use xlink:href="#DejaVuSans-414"/>
      <use x="78.125" xlink:href="#DejaVuSans-430"/>
      <use x="139.404297" xlink:href="#DejaVuSans-43d"/>
      <use x="204.785156" xlink:href="#DejaVuSans-43d"/>
      <use x="270.166016" xlink:href="#DejaVuSans-44b"/>
      <use x="349.121094" xlink:href="#DejaVuSans-435"/>
     </g>
    </g>
    <g id="line2d_116">
     <path d="M 981.235937 114.176562 
L 1001.235937 114.176562 
" style="fill:none;stroke:#ffc0cb;stroke-linecap:square;stroke-width:3;"/>
    </g>
    <g id="line2d_117">
     <g>
      <use style="fill:#ff0000;stroke:#ffc0cb;" x="991.235937" xlink:href="#mfe27a3f783" y="114.176562"/>
     </g>
    </g>
    <g id="text_21">
     <!-- V(t) -->
     <g transform="translate(1009.235937 117.676562)scale(0.1 -0.1)">
      <defs>
       <path d="M 1831 0 
L 50 4666 
L 709 4666 
L 2188 738 
L 3669 4666 
L 4325 4666 
L 2547 0 
L 1831 0 
z
" id="DejaVuSans-56" transform="scale(0.015625)"/>
       <path d="M 1984 4856 
Q 1566 4138 1362 3434 
Q 1159 2731 1159 2009 
Q 1159 1288 1364 580 
Q 1569 -128 1984 -844 
L 1484 -844 
Q 1016 -109 783 600 
Q 550 1309 550 2009 
Q 550 2706 781 3412 
Q 1013 4119 1484 4856 
L 1984 4856 
z
" id="DejaVuSans-28" transform="scale(0.015625)"/>
       <path d="M 1172 4494 
L 1172 3500 
L 2356 3500 
L 2356 3053 
L 1172 3053 
L 1172 1153 
Q 1172 725 1289 603 
Q 1406 481 1766 481 
L 2356 481 
L 2356 0 
L 1766 0 
Q 1100 0 847 248 
Q 594 497 594 1153 
L 594 3053 
L 172 3053 
L 172 3500 
L 594 3500 
L 594 4494 
L 1172 4494 
z
" id="DejaVuSans-74" transform="scale(0.015625)"/>
       <path d="M 513 4856 
L 1013 4856 
Q 1481 4119 1714 3412 
Q 1947 2706 1947 2009 
Q 1947 1309 1714 600 
Q 1481 -109 1013 -844 
L 513 -844 
Q 928 -128 1133 580 
Q 1338 1288 1338 2009 
Q 1338 2731 1133 3434 
Q 928 4138 513 4856 
z
" id="DejaVuSans-29" transform="scale(0.015625)"/>
      </defs>
      <use xlink:href="#DejaVuSans-56"/>
      <use x="68.408203" xlink:href="#DejaVuSans-28"/>
      <use x="107.421875" xlink:href="#DejaVuSans-74"/>
      <use x="146.630859" xlink:href="#DejaVuSans-29"/>
     </g>
    </g>
   </g>
  </g>
 </g>
 <defs>
  <clipPath id="p60a4617e04">
   <rect height="554.4" width="892.8" x="144" y="86.4"/>
  </clipPath>
 </defs>
</svg>
