<?xml version="1.0" encoding="utf-8" standalone="no"?>
<!DOCTYPE svg PUBLIC "-//W3C//DTD SVG 1.1//EN"
  "http://www.w3.org/Graphics/SVG/1.1/DTD/svg11.dtd">
<svg height="720pt" version="1.1" viewBox="0 0 1152 720" width="1152pt" xmlns="http://www.w3.org/2000/svg" xmlns:xlink="http://www.w3.org/1999/xlink">
 <metadata>
  <rdf:RDF xmlns:cc="http://creativecommons.org/ns#" xmlns:dc="http://purl.org/dc/elements/1.1/" xmlns:rdf="http://www.w3.org/1999/02/22-rdf-syntax-ns#">
   <cc:Work>
    <dc:type rdf:resource="http://purl.org/dc/dcmitype/StillImage"/>
    <dc:date>2022-05-05T13:33:18.182915</dc:date>
    <dc:format>image/svg+xml</dc:format>
    <dc:creator>
     <cc:Agent>
      <dc:title>Matplotlib v3.4.3, https://matplotlib.org/</dc:title>
     </cc:Agent>
    </dc:creator>
   </cc:Work>
  </rdf:RDF>
 </metadata>
 <defs>
  <style type="text/css">*{stroke-linecap:butt;stroke-linejoin:round;}</style>
 </defs>
 <g id="figure_1">
  <g id="patch_1">
   <path d="M 0 720 
L 1152 720 
L 1152 0 
L 0 0 
z
" style="fill:#ffffff;"/>
  </g>
  <g id="axes_1">
   <g id="patch_2">
    <path d="M 144 640.8 
L 1036.8 640.8 
L 1036.8 86.4 
L 144 86.4 
z
" style="fill:#ffffff;"/>
   </g>
   <g id="matplotlib.axis_1">
    <g id="xtick_1">
     <g id="line2d_1">
      <path clip-path="url(#pd8ea6fbbb8)" d="M 144 640.8 
L 144 86.4 
" style="fill:none;stroke:#000000;stroke-linecap:square;stroke-width:0.8;"/>
     </g>
     <g id="line2d_2">
      <defs>
       <path d="M 0 0 
L 0 3.5 
" id="m6994bdd0d8" style="stroke:#000000;stroke-width:0.8;"/>
      </defs>
      <g>
       <use style="stroke:#000000;stroke-width:0.8;" x="144" xlink:href="#m6994bdd0d8" y="640.8"/>
      </g>
     </g>
     <g id="text_1">
      <!-- 0 -->
      <g transform="translate(140.81875 655.398438)scale(0.1 -0.1)">
       <defs>
        <path d="M 2034 4250 
Q 1547 4250 1301 3770 
Q 1056 3291 1056 2328 
Q 1056 1369 1301 889 
Q 1547 409 2034 409 
Q 2525 409 2770 889 
Q 3016 1369 3016 2328 
Q 3016 3291 2770 3770 
Q 2525 4250 2034 4250 
z
M 2034 4750 
Q 2819 4750 3233 4129 
Q 3647 3509 3647 2328 
Q 3647 1150 3233 529 
Q 2819 -91 2034 -91 
Q 1250 -91 836 529 
Q 422 1150 422 2328 
Q 422 3509 836 4129 
Q 1250 4750 2034 4750 
z
" id="DejaVuSans-30" transform="scale(0.015625)"/>
       </defs>
       <use xlink:href="#DejaVuSans-30"/>
      </g>
     </g>
    </g>
    <g id="xtick_2">
     <g id="line2d_3">
      <path clip-path="url(#pd8ea6fbbb8)" d="M 324.966859 640.8 
L 324.966859 86.4 
" style="fill:none;stroke:#000000;stroke-linecap:square;stroke-width:0.8;"/>
     </g>
     <g id="line2d_4">
      <g>
       <use style="stroke:#000000;stroke-width:0.8;" x="324.966859" xlink:href="#m6994bdd0d8" y="640.8"/>
      </g>
     </g>
     <g id="text_2">
      <!-- 2 -->
      <g transform="translate(321.785609 655.398438)scale(0.1 -0.1)">
       <defs>
        <path d="M 1228 531 
L 3431 531 
L 3431 0 
L 469 0 
L 469 531 
Q 828 903 1448 1529 
Q 2069 2156 2228 2338 
Q 2531 2678 2651 2914 
Q 2772 3150 2772 3378 
Q 2772 3750 2511 3984 
Q 2250 4219 1831 4219 
Q 1534 4219 1204 4116 
Q 875 4013 500 3803 
L 500 4441 
Q 881 4594 1212 4672 
Q 1544 4750 1819 4750 
Q 2544 4750 2975 4387 
Q 3406 4025 3406 3419 
Q 3406 3131 3298 2873 
Q 3191 2616 2906 2266 
Q 2828 2175 2409 1742 
Q 1991 1309 1228 531 
z
" id="DejaVuSans-32" transform="scale(0.015625)"/>
       </defs>
       <use xlink:href="#DejaVuSans-32"/>
      </g>
     </g>
    </g>
    <g id="xtick_3">
     <g id="line2d_5">
      <path clip-path="url(#pd8ea6fbbb8)" d="M 505.933718 640.8 
L 505.933718 86.4 
" style="fill:none;stroke:#000000;stroke-linecap:square;stroke-width:0.8;"/>
     </g>
     <g id="line2d_6">
      <g>
       <use style="stroke:#000000;stroke-width:0.8;" x="505.933718" xlink:href="#m6994bdd0d8" y="640.8"/>
      </g>
     </g>
     <g id="text_3">
      <!-- 4 -->
      <g transform="translate(502.752468 655.398438)scale(0.1 -0.1)">
       <defs>
        <path d="M 2419 4116 
L 825 1625 
L 2419 1625 
L 2419 4116 
z
M 2253 4666 
L 3047 4666 
L 3047 1625 
L 3713 1625 
L 3713 1100 
L 3047 1100 
L 3047 0 
L 2419 0 
L 2419 1100 
L 313 1100 
L 313 1709 
L 2253 4666 
z
" id="DejaVuSans-34" transform="scale(0.015625)"/>
       </defs>
       <use xlink:href="#DejaVuSans-34"/>
      </g>
     </g>
    </g>
    <g id="xtick_4">
     <g id="line2d_7">
      <path clip-path="url(#pd8ea6fbbb8)" d="M 686.900578 640.8 
L 686.900578 86.4 
" style="fill:none;stroke:#000000;stroke-linecap:square;stroke-width:0.8;"/>
     </g>
     <g id="line2d_8">
      <g>
       <use style="stroke:#000000;stroke-width:0.8;" x="686.900578" xlink:href="#m6994bdd0d8" y="640.8"/>
      </g>
     </g>
     <g id="text_4">
      <!-- 6 -->
      <g transform="translate(683.719328 655.398438)scale(0.1 -0.1)">
       <defs>
        <path d="M 2113 2584 
Q 1688 2584 1439 2293 
Q 1191 2003 1191 1497 
Q 1191 994 1439 701 
Q 1688 409 2113 409 
Q 2538 409 2786 701 
Q 3034 994 3034 1497 
Q 3034 2003 2786 2293 
Q 2538 2584 2113 2584 
z
M 3366 4563 
L 3366 3988 
Q 3128 4100 2886 4159 
Q 2644 4219 2406 4219 
Q 1781 4219 1451 3797 
Q 1122 3375 1075 2522 
Q 1259 2794 1537 2939 
Q 1816 3084 2150 3084 
Q 2853 3084 3261 2657 
Q 3669 2231 3669 1497 
Q 3669 778 3244 343 
Q 2819 -91 2113 -91 
Q 1303 -91 875 529 
Q 447 1150 447 2328 
Q 447 3434 972 4092 
Q 1497 4750 2381 4750 
Q 2619 4750 2861 4703 
Q 3103 4656 3366 4563 
z
" id="DejaVuSans-36" transform="scale(0.015625)"/>
       </defs>
       <use xlink:href="#DejaVuSans-36"/>
      </g>
     </g>
    </g>
    <g id="xtick_5">
     <g id="line2d_9">
      <path clip-path="url(#pd8ea6fbbb8)" d="M 867.867437 640.8 
L 867.867437 86.4 
" style="fill:none;stroke:#000000;stroke-linecap:square;stroke-width:0.8;"/>
     </g>
     <g id="line2d_10">
      <g>
       <use style="stroke:#000000;stroke-width:0.8;" x="867.867437" xlink:href="#m6994bdd0d8" y="640.8"/>
      </g>
     </g>
     <g id="text_5">
      <!-- 8 -->
      <g transform="translate(864.686187 655.398438)scale(0.1 -0.1)">
       <defs>
        <path d="M 2034 2216 
Q 1584 2216 1326 1975 
Q 1069 1734 1069 1313 
Q 1069 891 1326 650 
Q 1584 409 2034 409 
Q 2484 409 2743 651 
Q 3003 894 3003 1313 
Q 3003 1734 2745 1975 
Q 2488 2216 2034 2216 
z
M 1403 2484 
Q 997 2584 770 2862 
Q 544 3141 544 3541 
Q 544 4100 942 4425 
Q 1341 4750 2034 4750 
Q 2731 4750 3128 4425 
Q 3525 4100 3525 3541 
Q 3525 3141 3298 2862 
Q 3072 2584 2669 2484 
Q 3125 2378 3379 2068 
Q 3634 1759 3634 1313 
Q 3634 634 3220 271 
Q 2806 -91 2034 -91 
Q 1263 -91 848 271 
Q 434 634 434 1313 
Q 434 1759 690 2068 
Q 947 2378 1403 2484 
z
M 1172 3481 
Q 1172 3119 1398 2916 
Q 1625 2713 2034 2713 
Q 2441 2713 2670 2916 
Q 2900 3119 2900 3481 
Q 2900 3844 2670 4047 
Q 2441 4250 2034 4250 
Q 1625 4250 1398 4047 
Q 1172 3844 1172 3481 
z
" id="DejaVuSans-38" transform="scale(0.015625)"/>
       </defs>
       <use xlink:href="#DejaVuSans-38"/>
      </g>
     </g>
    </g>
    <g id="xtick_6">
     <g id="line2d_11">
      <path clip-path="url(#pd8ea6fbbb8)" d="M 189.241715 640.8 
L 189.241715 86.4 
" style="fill:none;stroke:#4169e1;stroke-dasharray:0.8,1.32;stroke-dashoffset:0;stroke-width:0.8;"/>
     </g>
     <g id="line2d_12">
      <defs>
       <path d="M 0 0 
L 0 2 
" id="mf3e9c8bf75" style="stroke:#000000;stroke-width:0.6;"/>
      </defs>
      <g>
       <use style="stroke:#000000;stroke-width:0.6;" x="189.241715" xlink:href="#mf3e9c8bf75" y="640.8"/>
      </g>
     </g>
    </g>
    <g id="xtick_7">
     <g id="line2d_13">
      <path clip-path="url(#pd8ea6fbbb8)" d="M 234.48343 640.8 
L 234.48343 86.4 
" style="fill:none;stroke:#4169e1;stroke-dasharray:0.8,1.32;stroke-dashoffset:0;stroke-width:0.8;"/>
     </g>
     <g id="line2d_14">
      <g>
       <use style="stroke:#000000;stroke-width:0.6;" x="234.48343" xlink:href="#mf3e9c8bf75" y="640.8"/>
      </g>
     </g>
    </g>
    <g id="xtick_8">
     <g id="line2d_15">
      <path clip-path="url(#pd8ea6fbbb8)" d="M 279.725144 640.8 
L 279.725144 86.4 
" style="fill:none;stroke:#4169e1;stroke-dasharray:0.8,1.32;stroke-dashoffset:0;stroke-width:0.8;"/>
     </g>
     <g id="line2d_16">
      <g>
       <use style="stroke:#000000;stroke-width:0.6;" x="279.725144" xlink:href="#mf3e9c8bf75" y="640.8"/>
      </g>
     </g>
    </g>
    <g id="xtick_9">
     <g id="line2d_17">
      <path clip-path="url(#pd8ea6fbbb8)" d="M 370.208574 640.8 
L 370.208574 86.4 
" style="fill:none;stroke:#4169e1;stroke-dasharray:0.8,1.32;stroke-dashoffset:0;stroke-width:0.8;"/>
     </g>
     <g id="line2d_18">
      <g>
       <use style="stroke:#000000;stroke-width:0.6;" x="370.208574" xlink:href="#mf3e9c8bf75" y="640.8"/>
      </g>
     </g>
    </g>
    <g id="xtick_10">
     <g id="line2d_19">
      <path clip-path="url(#pd8ea6fbbb8)" d="M 415.450289 640.8 
L 415.450289 86.4 
" style="fill:none;stroke:#4169e1;stroke-dasharray:0.8,1.32;stroke-dashoffset:0;stroke-width:0.8;"/>
     </g>
     <g id="line2d_20">
      <g>
       <use style="stroke:#000000;stroke-width:0.6;" x="415.450289" xlink:href="#mf3e9c8bf75" y="640.8"/>
      </g>
     </g>
    </g>
    <g id="xtick_11">
     <g id="line2d_21">
      <path clip-path="url(#pd8ea6fbbb8)" d="M 460.692004 640.8 
L 460.692004 86.4 
" style="fill:none;stroke:#4169e1;stroke-dasharray:0.8,1.32;stroke-dashoffset:0;stroke-width:0.8;"/>
     </g>
     <g id="line2d_22">
      <g>
       <use style="stroke:#000000;stroke-width:0.6;" x="460.692004" xlink:href="#mf3e9c8bf75" y="640.8"/>
      </g>
     </g>
    </g>
    <g id="xtick_12">
     <g id="line2d_23">
      <path clip-path="url(#pd8ea6fbbb8)" d="M 551.175433 640.8 
L 551.175433 86.4 
" style="fill:none;stroke:#4169e1;stroke-dasharray:0.8,1.32;stroke-dashoffset:0;stroke-width:0.8;"/>
     </g>
     <g id="line2d_24">
      <g>
       <use style="stroke:#000000;stroke-width:0.6;" x="551.175433" xlink:href="#mf3e9c8bf75" y="640.8"/>
      </g>
     </g>
    </g>
    <g id="xtick_13">
     <g id="line2d_25">
      <path clip-path="url(#pd8ea6fbbb8)" d="M 596.417148 640.8 
L 596.417148 86.4 
" style="fill:none;stroke:#4169e1;stroke-dasharray:0.8,1.32;stroke-dashoffset:0;stroke-width:0.8;"/>
     </g>
     <g id="line2d_26">
      <g>
       <use style="stroke:#000000;stroke-width:0.6;" x="596.417148" xlink:href="#mf3e9c8bf75" y="640.8"/>
      </g>
     </g>
    </g>
    <g id="xtick_14">
     <g id="line2d_27">
      <path clip-path="url(#pd8ea6fbbb8)" d="M 641.658863 640.8 
L 641.658863 86.4 
" style="fill:none;stroke:#4169e1;stroke-dasharray:0.8,1.32;stroke-dashoffset:0;stroke-width:0.8;"/>
     </g>
     <g id="line2d_28">
      <g>
       <use style="stroke:#000000;stroke-width:0.6;" x="641.658863" xlink:href="#mf3e9c8bf75" y="640.8"/>
      </g>
     </g>
    </g>
    <g id="xtick_15">
     <g id="line2d_29">
      <path clip-path="url(#pd8ea6fbbb8)" d="M 732.142292 640.8 
L 732.142292 86.4 
" style="fill:none;stroke:#4169e1;stroke-dasharray:0.8,1.32;stroke-dashoffset:0;stroke-width:0.8;"/>
     </g>
     <g id="line2d_30">
      <g>
       <use style="stroke:#000000;stroke-width:0.6;" x="732.142292" xlink:href="#mf3e9c8bf75" y="640.8"/>
      </g>
     </g>
    </g>
    <g id="xtick_16">
     <g id="line2d_31">
      <path clip-path="url(#pd8ea6fbbb8)" d="M 777.384007 640.8 
L 777.384007 86.4 
" style="fill:none;stroke:#4169e1;stroke-dasharray:0.8,1.32;stroke-dashoffset:0;stroke-width:0.8;"/>
     </g>
     <g id="line2d_32">
      <g>
       <use style="stroke:#000000;stroke-width:0.6;" x="777.384007" xlink:href="#mf3e9c8bf75" y="640.8"/>
      </g>
     </g>
    </g>
    <g id="xtick_17">
     <g id="line2d_33">
      <path clip-path="url(#pd8ea6fbbb8)" d="M 822.625722 640.8 
L 822.625722 86.4 
" style="fill:none;stroke:#4169e1;stroke-dasharray:0.8,1.32;stroke-dashoffset:0;stroke-width:0.8;"/>
     </g>
     <g id="line2d_34">
      <g>
       <use style="stroke:#000000;stroke-width:0.6;" x="822.625722" xlink:href="#mf3e9c8bf75" y="640.8"/>
      </g>
     </g>
    </g>
    <g id="xtick_18">
     <g id="line2d_35">
      <path clip-path="url(#pd8ea6fbbb8)" d="M 913.109152 640.8 
L 913.109152 86.4 
" style="fill:none;stroke:#4169e1;stroke-dasharray:0.8,1.32;stroke-dashoffset:0;stroke-width:0.8;"/>
     </g>
     <g id="line2d_36">
      <g>
       <use style="stroke:#000000;stroke-width:0.6;" x="913.109152" xlink:href="#mf3e9c8bf75" y="640.8"/>
      </g>
     </g>
    </g>
    <g id="xtick_19">
     <g id="line2d_37">
      <path clip-path="url(#pd8ea6fbbb8)" d="M 958.350867 640.8 
L 958.350867 86.4 
" style="fill:none;stroke:#4169e1;stroke-dasharray:0.8,1.32;stroke-dashoffset:0;stroke-width:0.8;"/>
     </g>
     <g id="line2d_38">
      <g>
       <use style="stroke:#000000;stroke-width:0.6;" x="958.350867" xlink:href="#mf3e9c8bf75" y="640.8"/>
      </g>
     </g>
    </g>
    <g id="xtick_20">
     <g id="line2d_39">
      <path clip-path="url(#pd8ea6fbbb8)" d="M 1003.592581 640.8 
L 1003.592581 86.4 
" style="fill:none;stroke:#4169e1;stroke-dasharray:0.8,1.32;stroke-dashoffset:0;stroke-width:0.8;"/>
     </g>
     <g id="line2d_40">
      <g>
       <use style="stroke:#000000;stroke-width:0.6;" x="1003.592581" xlink:href="#mf3e9c8bf75" y="640.8"/>
      </g>
     </g>
    </g>
    <g id="text_6">
     <!-- Время, c -->
     <g transform="translate(568.011719 669.076563)scale(0.1 -0.1)">
      <defs>
       <path d="M 1259 2228 
L 1259 519 
L 2272 519 
Q 2781 519 3026 730 
Q 3272 941 3272 1375 
Q 3272 1813 3026 2020 
Q 2781 2228 2272 2228 
L 1259 2228 
z
M 1259 4147 
L 1259 2741 
L 2194 2741 
Q 2656 2741 2882 2914 
Q 3109 3088 3109 3444 
Q 3109 3797 2882 3972 
Q 2656 4147 2194 4147 
L 1259 4147 
z
M 628 4666 
L 2241 4666 
Q 2963 4666 3353 4366 
Q 3744 4066 3744 3513 
Q 3744 3084 3544 2831 
Q 3344 2578 2956 2516 
Q 3422 2416 3680 2098 
Q 3938 1781 3938 1306 
Q 3938 681 3513 340 
Q 3088 0 2303 0 
L 628 0 
L 628 4666 
z
" id="DejaVuSans-412" transform="scale(0.015625)"/>
       <path d="M 1159 525 
L 1159 -1331 
L 581 -1331 
L 581 3500 
L 1159 3500 
L 1159 2969 
Q 1341 3281 1617 3432 
Q 1894 3584 2278 3584 
Q 2916 3584 3314 3078 
Q 3713 2572 3713 1747 
Q 3713 922 3314 415 
Q 2916 -91 2278 -91 
Q 1894 -91 1617 61 
Q 1341 213 1159 525 
z
M 3116 1747 
Q 3116 2381 2855 2742 
Q 2594 3103 2138 3103 
Q 1681 3103 1420 2742 
Q 1159 2381 1159 1747 
Q 1159 1113 1420 752 
Q 1681 391 2138 391 
Q 2594 391 2855 752 
Q 3116 1113 3116 1747 
z
" id="DejaVuSans-440" transform="scale(0.015625)"/>
       <path d="M 3597 1894 
L 3597 1613 
L 953 1613 
Q 991 1019 1311 708 
Q 1631 397 2203 397 
Q 2534 397 2845 478 
Q 3156 559 3463 722 
L 3463 178 
Q 3153 47 2828 -22 
Q 2503 -91 2169 -91 
Q 1331 -91 842 396 
Q 353 884 353 1716 
Q 353 2575 817 3079 
Q 1281 3584 2069 3584 
Q 2775 3584 3186 3129 
Q 3597 2675 3597 1894 
z
M 3022 2063 
Q 3016 2534 2758 2815 
Q 2500 3097 2075 3097 
Q 1594 3097 1305 2825 
Q 1016 2553 972 2059 
L 3022 2063 
z
" id="DejaVuSans-435" transform="scale(0.015625)"/>
       <path d="M 581 3500 
L 1422 3500 
L 2416 1156 
L 3413 3500 
L 4247 3500 
L 4247 0 
L 3669 0 
L 3669 2950 
L 2703 672 
L 2128 672 
L 1159 2950 
L 1159 0 
L 581 0 
L 581 3500 
z
" id="DejaVuSans-43c" transform="scale(0.015625)"/>
       <path d="M 1181 2491 
Q 1181 2231 1381 2084 
Q 1581 1938 1953 1938 
L 2728 1938 
L 2728 3041 
L 1953 3041 
Q 1581 3041 1381 2897 
Q 1181 2753 1181 2491 
z
M 363 0 
L 1431 1534 
Q 1069 1616 828 1830 
Q 588 2044 588 2491 
Q 588 2997 923 3248 
Q 1259 3500 1938 3500 
L 3306 3500 
L 3306 0 
L 2728 0 
L 2728 1478 
L 2013 1478 
L 981 0 
L 363 0 
z
" id="DejaVuSans-44f" transform="scale(0.015625)"/>
       <path d="M 750 794 
L 1409 794 
L 1409 256 
L 897 -744 
L 494 -744 
L 750 256 
L 750 794 
z
" id="DejaVuSans-2c" transform="scale(0.015625)"/>
       <path id="DejaVuSans-20" transform="scale(0.015625)"/>
       <path d="M 3122 3366 
L 3122 2828 
Q 2878 2963 2633 3030 
Q 2388 3097 2138 3097 
Q 1578 3097 1268 2742 
Q 959 2388 959 1747 
Q 959 1106 1268 751 
Q 1578 397 2138 397 
Q 2388 397 2633 464 
Q 2878 531 3122 666 
L 3122 134 
Q 2881 22 2623 -34 
Q 2366 -91 2075 -91 
Q 1284 -91 818 406 
Q 353 903 353 1747 
Q 353 2603 823 3093 
Q 1294 3584 2113 3584 
Q 2378 3584 2631 3529 
Q 2884 3475 3122 3366 
z
" id="DejaVuSans-63" transform="scale(0.015625)"/>
      </defs>
      <use xlink:href="#DejaVuSans-412"/>
      <use x="68.603516" xlink:href="#DejaVuSans-440"/>
      <use x="132.080078" xlink:href="#DejaVuSans-435"/>
      <use x="193.603516" xlink:href="#DejaVuSans-43c"/>
      <use x="269.042969" xlink:href="#DejaVuSans-44f"/>
      <use x="329.199219" xlink:href="#DejaVuSans-2c"/>
      <use x="360.986328" xlink:href="#DejaVuSans-20"/>
      <use x="392.773438" xlink:href="#DejaVuSans-63"/>
     </g>
    </g>
   </g>
   <g id="matplotlib.axis_2">
    <g id="ytick_1">
     <g id="line2d_41">
      <path clip-path="url(#pd8ea6fbbb8)" d="M 144 640.8 
L 1036.8 640.8 
" style="fill:none;stroke:#000000;stroke-linecap:square;stroke-width:0.8;"/>
     </g>
     <g id="line2d_42">
      <defs>
       <path d="M 0 0 
L -3.5 0 
" id="ma0e870eea7" style="stroke:#000000;stroke-width:0.8;"/>
      </defs>
      <g>
       <use style="stroke:#000000;stroke-width:0.8;" x="144" xlink:href="#ma0e870eea7" y="640.8"/>
      </g>
     </g>
     <g id="text_7">
      <!-- 0.0 -->
      <g transform="translate(121.096875 644.599219)scale(0.1 -0.1)">
       <defs>
        <path d="M 684 794 
L 1344 794 
L 1344 0 
L 684 0 
L 684 794 
z
" id="DejaVuSans-2e" transform="scale(0.015625)"/>
       </defs>
       <use xlink:href="#DejaVuSans-30"/>
       <use x="63.623047" xlink:href="#DejaVuSans-2e"/>
       <use x="95.410156" xlink:href="#DejaVuSans-30"/>
      </g>
     </g>
    </g>
    <g id="ytick_2">
     <g id="line2d_43">
      <path clip-path="url(#pd8ea6fbbb8)" d="M 144 565.555381 
L 1036.8 565.555381 
" style="fill:none;stroke:#000000;stroke-linecap:square;stroke-width:0.8;"/>
     </g>
     <g id="line2d_44">
      <g>
       <use style="stroke:#000000;stroke-width:0.8;" x="144" xlink:href="#ma0e870eea7" y="565.555381"/>
      </g>
     </g>
     <g id="text_8">
      <!-- 0.5 -->
      <g transform="translate(121.096875 569.3546)scale(0.1 -0.1)">
       <defs>
        <path d="M 691 4666 
L 3169 4666 
L 3169 4134 
L 1269 4134 
L 1269 2991 
Q 1406 3038 1543 3061 
Q 1681 3084 1819 3084 
Q 2600 3084 3056 2656 
Q 3513 2228 3513 1497 
Q 3513 744 3044 326 
Q 2575 -91 1722 -91 
Q 1428 -91 1123 -41 
Q 819 9 494 109 
L 494 744 
Q 775 591 1075 516 
Q 1375 441 1709 441 
Q 2250 441 2565 725 
Q 2881 1009 2881 1497 
Q 2881 1984 2565 2268 
Q 2250 2553 1709 2553 
Q 1456 2553 1204 2497 
Q 953 2441 691 2322 
L 691 4666 
z
" id="DejaVuSans-35" transform="scale(0.015625)"/>
       </defs>
       <use xlink:href="#DejaVuSans-30"/>
       <use x="63.623047" xlink:href="#DejaVuSans-2e"/>
       <use x="95.410156" xlink:href="#DejaVuSans-35"/>
      </g>
     </g>
    </g>
    <g id="ytick_3">
     <g id="line2d_45">
      <path clip-path="url(#pd8ea6fbbb8)" d="M 144 490.310762 
L 1036.8 490.310762 
" style="fill:none;stroke:#000000;stroke-linecap:square;stroke-width:0.8;"/>
     </g>
     <g id="line2d_46">
      <g>
       <use style="stroke:#000000;stroke-width:0.8;" x="144" xlink:href="#ma0e870eea7" y="490.310762"/>
      </g>
     </g>
     <g id="text_9">
      <!-- 1.0 -->
      <g transform="translate(121.096875 494.109981)scale(0.1 -0.1)">
       <defs>
        <path d="M 794 531 
L 1825 531 
L 1825 4091 
L 703 3866 
L 703 4441 
L 1819 4666 
L 2450 4666 
L 2450 531 
L 3481 531 
L 3481 0 
L 794 0 
L 794 531 
z
" id="DejaVuSans-31" transform="scale(0.015625)"/>
       </defs>
       <use xlink:href="#DejaVuSans-31"/>
       <use x="63.623047" xlink:href="#DejaVuSans-2e"/>
       <use x="95.410156" xlink:href="#DejaVuSans-30"/>
      </g>
     </g>
    </g>
    <g id="ytick_4">
     <g id="line2d_47">
      <path clip-path="url(#pd8ea6fbbb8)" d="M 144 415.066144 
L 1036.8 415.066144 
" style="fill:none;stroke:#000000;stroke-linecap:square;stroke-width:0.8;"/>
     </g>
     <g id="line2d_48">
      <g>
       <use style="stroke:#000000;stroke-width:0.8;" x="144" xlink:href="#ma0e870eea7" y="415.066144"/>
      </g>
     </g>
     <g id="text_10">
      <!-- 1.5 -->
      <g transform="translate(121.096875 418.865362)scale(0.1 -0.1)">
       <use xlink:href="#DejaVuSans-31"/>
       <use x="63.623047" xlink:href="#DejaVuSans-2e"/>
       <use x="95.410156" xlink:href="#DejaVuSans-35"/>
      </g>
     </g>
    </g>
    <g id="ytick_5">
     <g id="line2d_49">
      <path clip-path="url(#pd8ea6fbbb8)" d="M 144 339.821525 
L 1036.8 339.821525 
" style="fill:none;stroke:#000000;stroke-linecap:square;stroke-width:0.8;"/>
     </g>
     <g id="line2d_50">
      <g>
       <use style="stroke:#000000;stroke-width:0.8;" x="144" xlink:href="#ma0e870eea7" y="339.821525"/>
      </g>
     </g>
     <g id="text_11">
      <!-- 2.0 -->
      <g transform="translate(121.096875 343.620744)scale(0.1 -0.1)">
       <use xlink:href="#DejaVuSans-32"/>
       <use x="63.623047" xlink:href="#DejaVuSans-2e"/>
       <use x="95.410156" xlink:href="#DejaVuSans-30"/>
      </g>
     </g>
    </g>
    <g id="ytick_6">
     <g id="line2d_51">
      <path clip-path="url(#pd8ea6fbbb8)" d="M 144 264.576906 
L 1036.8 264.576906 
" style="fill:none;stroke:#000000;stroke-linecap:square;stroke-width:0.8;"/>
     </g>
     <g id="line2d_52">
      <g>
       <use style="stroke:#000000;stroke-width:0.8;" x="144" xlink:href="#ma0e870eea7" y="264.576906"/>
      </g>
     </g>
     <g id="text_12">
      <!-- 2.5 -->
      <g transform="translate(121.096875 268.376125)scale(0.1 -0.1)">
       <use xlink:href="#DejaVuSans-32"/>
       <use x="63.623047" xlink:href="#DejaVuSans-2e"/>
       <use x="95.410156" xlink:href="#DejaVuSans-35"/>
      </g>
     </g>
    </g>
    <g id="ytick_7">
     <g id="line2d_53">
      <path clip-path="url(#pd8ea6fbbb8)" d="M 144 189.332287 
L 1036.8 189.332287 
" style="fill:none;stroke:#000000;stroke-linecap:square;stroke-width:0.8;"/>
     </g>
     <g id="line2d_54">
      <g>
       <use style="stroke:#000000;stroke-width:0.8;" x="144" xlink:href="#ma0e870eea7" y="189.332287"/>
      </g>
     </g>
     <g id="text_13">
      <!-- 3.0 -->
      <g transform="translate(121.096875 193.131506)scale(0.1 -0.1)">
       <defs>
        <path d="M 2597 2516 
Q 3050 2419 3304 2112 
Q 3559 1806 3559 1356 
Q 3559 666 3084 287 
Q 2609 -91 1734 -91 
Q 1441 -91 1130 -33 
Q 819 25 488 141 
L 488 750 
Q 750 597 1062 519 
Q 1375 441 1716 441 
Q 2309 441 2620 675 
Q 2931 909 2931 1356 
Q 2931 1769 2642 2001 
Q 2353 2234 1838 2234 
L 1294 2234 
L 1294 2753 
L 1863 2753 
Q 2328 2753 2575 2939 
Q 2822 3125 2822 3475 
Q 2822 3834 2567 4026 
Q 2313 4219 1838 4219 
Q 1578 4219 1281 4162 
Q 984 4106 628 3988 
L 628 4550 
Q 988 4650 1302 4700 
Q 1616 4750 1894 4750 
Q 2613 4750 3031 4423 
Q 3450 4097 3450 3541 
Q 3450 3153 3228 2886 
Q 3006 2619 2597 2516 
z
" id="DejaVuSans-33" transform="scale(0.015625)"/>
       </defs>
       <use xlink:href="#DejaVuSans-33"/>
       <use x="63.623047" xlink:href="#DejaVuSans-2e"/>
       <use x="95.410156" xlink:href="#DejaVuSans-30"/>
      </g>
     </g>
    </g>
    <g id="ytick_8">
     <g id="line2d_55">
      <path clip-path="url(#pd8ea6fbbb8)" d="M 144 114.087668 
L 1036.8 114.087668 
" style="fill:none;stroke:#000000;stroke-linecap:square;stroke-width:0.8;"/>
     </g>
     <g id="line2d_56">
      <g>
       <use style="stroke:#000000;stroke-width:0.8;" x="144" xlink:href="#ma0e870eea7" y="114.087668"/>
      </g>
     </g>
     <g id="text_14">
      <!-- 3.5 -->
      <g transform="translate(121.096875 117.886887)scale(0.1 -0.1)">
       <use xlink:href="#DejaVuSans-33"/>
       <use x="63.623047" xlink:href="#DejaVuSans-2e"/>
       <use x="95.410156" xlink:href="#DejaVuSans-35"/>
      </g>
     </g>
    </g>
    <g id="ytick_9">
     <g id="line2d_57">
      <path clip-path="url(#pd8ea6fbbb8)" d="M 144 625.751076 
L 1036.8 625.751076 
" style="fill:none;stroke:#4169e1;stroke-dasharray:0.8,1.32;stroke-dashoffset:0;stroke-width:0.8;"/>
     </g>
     <g id="line2d_58">
      <defs>
       <path d="M 0 0 
L -2 0 
" id="mfea2256d94" style="stroke:#000000;stroke-width:0.6;"/>
      </defs>
      <g>
       <use style="stroke:#000000;stroke-width:0.6;" x="144" xlink:href="#mfea2256d94" y="625.751076"/>
      </g>
     </g>
    </g>
    <g id="ytick_10">
     <g id="line2d_59">
      <path clip-path="url(#pd8ea6fbbb8)" d="M 144 610.702152 
L 1036.8 610.702152 
" style="fill:none;stroke:#4169e1;stroke-dasharray:0.8,1.32;stroke-dashoffset:0;stroke-width:0.8;"/>
     </g>
     <g id="line2d_60">
      <g>
       <use style="stroke:#000000;stroke-width:0.6;" x="144" xlink:href="#mfea2256d94" y="610.702152"/>
      </g>
     </g>
    </g>
    <g id="ytick_11">
     <g id="line2d_61">
      <path clip-path="url(#pd8ea6fbbb8)" d="M 144 595.653229 
L 1036.8 595.653229 
" style="fill:none;stroke:#4169e1;stroke-dasharray:0.8,1.32;stroke-dashoffset:0;stroke-width:0.8;"/>
     </g>
     <g id="line2d_62">
      <g>
       <use style="stroke:#000000;stroke-width:0.6;" x="144" xlink:href="#mfea2256d94" y="595.653229"/>
      </g>
     </g>
    </g>
    <g id="ytick_12">
     <g id="line2d_63">
      <path clip-path="url(#pd8ea6fbbb8)" d="M 144 580.604305 
L 1036.8 580.604305 
" style="fill:none;stroke:#4169e1;stroke-dasharray:0.8,1.32;stroke-dashoffset:0;stroke-width:0.8;"/>
     </g>
     <g id="line2d_64">
      <g>
       <use style="stroke:#000000;stroke-width:0.6;" x="144" xlink:href="#mfea2256d94" y="580.604305"/>
      </g>
     </g>
    </g>
    <g id="ytick_13">
     <g id="line2d_65">
      <path clip-path="url(#pd8ea6fbbb8)" d="M 144 550.506457 
L 1036.8 550.506457 
" style="fill:none;stroke:#4169e1;stroke-dasharray:0.8,1.32;stroke-dashoffset:0;stroke-width:0.8;"/>
     </g>
     <g id="line2d_66">
      <g>
       <use style="stroke:#000000;stroke-width:0.6;" x="144" xlink:href="#mfea2256d94" y="550.506457"/>
      </g>
     </g>
    </g>
    <g id="ytick_14">
     <g id="line2d_67">
      <path clip-path="url(#pd8ea6fbbb8)" d="M 144 535.457534 
L 1036.8 535.457534 
" style="fill:none;stroke:#4169e1;stroke-dasharray:0.8,1.32;stroke-dashoffset:0;stroke-width:0.8;"/>
     </g>
     <g id="line2d_68">
      <g>
       <use style="stroke:#000000;stroke-width:0.6;" x="144" xlink:href="#mfea2256d94" y="535.457534"/>
      </g>
     </g>
    </g>
    <g id="ytick_15">
     <g id="line2d_69">
      <path clip-path="url(#pd8ea6fbbb8)" d="M 144 520.40861 
L 1036.8 520.40861 
" style="fill:none;stroke:#4169e1;stroke-dasharray:0.8,1.32;stroke-dashoffset:0;stroke-width:0.8;"/>
     </g>
     <g id="line2d_70">
      <g>
       <use style="stroke:#000000;stroke-width:0.6;" x="144" xlink:href="#mfea2256d94" y="520.40861"/>
      </g>
     </g>
    </g>
    <g id="ytick_16">
     <g id="line2d_71">
      <path clip-path="url(#pd8ea6fbbb8)" d="M 144 505.359686 
L 1036.8 505.359686 
" style="fill:none;stroke:#4169e1;stroke-dasharray:0.8,1.32;stroke-dashoffset:0;stroke-width:0.8;"/>
     </g>
     <g id="line2d_72">
      <g>
       <use style="stroke:#000000;stroke-width:0.6;" x="144" xlink:href="#mfea2256d94" y="505.359686"/>
      </g>
     </g>
    </g>
    <g id="ytick_17">
     <g id="line2d_73">
      <path clip-path="url(#pd8ea6fbbb8)" d="M 144 475.261839 
L 1036.8 475.261839 
" style="fill:none;stroke:#4169e1;stroke-dasharray:0.8,1.32;stroke-dashoffset:0;stroke-width:0.8;"/>
     </g>
     <g id="line2d_74">
      <g>
       <use style="stroke:#000000;stroke-width:0.6;" x="144" xlink:href="#mfea2256d94" y="475.261839"/>
      </g>
     </g>
    </g>
    <g id="ytick_18">
     <g id="line2d_75">
      <path clip-path="url(#pd8ea6fbbb8)" d="M 144 460.212915 
L 1036.8 460.212915 
" style="fill:none;stroke:#4169e1;stroke-dasharray:0.8,1.32;stroke-dashoffset:0;stroke-width:0.8;"/>
     </g>
     <g id="line2d_76">
      <g>
       <use style="stroke:#000000;stroke-width:0.6;" x="144" xlink:href="#mfea2256d94" y="460.212915"/>
      </g>
     </g>
    </g>
    <g id="ytick_19">
     <g id="line2d_77">
      <path clip-path="url(#pd8ea6fbbb8)" d="M 144 445.163991 
L 1036.8 445.163991 
" style="fill:none;stroke:#4169e1;stroke-dasharray:0.8,1.32;stroke-dashoffset:0;stroke-width:0.8;"/>
     </g>
     <g id="line2d_78">
      <g>
       <use style="stroke:#000000;stroke-width:0.6;" x="144" xlink:href="#mfea2256d94" y="445.163991"/>
      </g>
     </g>
    </g>
    <g id="ytick_20">
     <g id="line2d_79">
      <path clip-path="url(#pd8ea6fbbb8)" d="M 144 430.115067 
L 1036.8 430.115067 
" style="fill:none;stroke:#4169e1;stroke-dasharray:0.8,1.32;stroke-dashoffset:0;stroke-width:0.8;"/>
     </g>
     <g id="line2d_80">
      <g>
       <use style="stroke:#000000;stroke-width:0.6;" x="144" xlink:href="#mfea2256d94" y="430.115067"/>
      </g>
     </g>
    </g>
    <g id="ytick_21">
     <g id="line2d_81">
      <path clip-path="url(#pd8ea6fbbb8)" d="M 144 400.01722 
L 1036.8 400.01722 
" style="fill:none;stroke:#4169e1;stroke-dasharray:0.8,1.32;stroke-dashoffset:0;stroke-width:0.8;"/>
     </g>
     <g id="line2d_82">
      <g>
       <use style="stroke:#000000;stroke-width:0.6;" x="144" xlink:href="#mfea2256d94" y="400.01722"/>
      </g>
     </g>
    </g>
    <g id="ytick_22">
     <g id="line2d_83">
      <path clip-path="url(#pd8ea6fbbb8)" d="M 144 384.968296 
L 1036.8 384.968296 
" style="fill:none;stroke:#4169e1;stroke-dasharray:0.8,1.32;stroke-dashoffset:0;stroke-width:0.8;"/>
     </g>
     <g id="line2d_84">
      <g>
       <use style="stroke:#000000;stroke-width:0.6;" x="144" xlink:href="#mfea2256d94" y="384.968296"/>
      </g>
     </g>
    </g>
    <g id="ytick_23">
     <g id="line2d_85">
      <path clip-path="url(#pd8ea6fbbb8)" d="M 144 369.919372 
L 1036.8 369.919372 
" style="fill:none;stroke:#4169e1;stroke-dasharray:0.8,1.32;stroke-dashoffset:0;stroke-width:0.8;"/>
     </g>
     <g id="line2d_86">
      <g>
       <use style="stroke:#000000;stroke-width:0.6;" x="144" xlink:href="#mfea2256d94" y="369.919372"/>
      </g>
     </g>
    </g>
    <g id="ytick_24">
     <g id="line2d_87">
      <path clip-path="url(#pd8ea6fbbb8)" d="M 144 354.870449 
L 1036.8 354.870449 
" style="fill:none;stroke:#4169e1;stroke-dasharray:0.8,1.32;stroke-dashoffset:0;stroke-width:0.8;"/>
     </g>
     <g id="line2d_88">
      <g>
       <use style="stroke:#000000;stroke-width:0.6;" x="144" xlink:href="#mfea2256d94" y="354.870449"/>
      </g>
     </g>
    </g>
    <g id="ytick_25">
     <g id="line2d_89">
      <path clip-path="url(#pd8ea6fbbb8)" d="M 144 324.772601 
L 1036.8 324.772601 
" style="fill:none;stroke:#4169e1;stroke-dasharray:0.8,1.32;stroke-dashoffset:0;stroke-width:0.8;"/>
     </g>
     <g id="line2d_90">
      <g>
       <use style="stroke:#000000;stroke-width:0.6;" x="144" xlink:href="#mfea2256d94" y="324.772601"/>
      </g>
     </g>
    </g>
    <g id="ytick_26">
     <g id="line2d_91">
      <path clip-path="url(#pd8ea6fbbb8)" d="M 144 309.723677 
L 1036.8 309.723677 
" style="fill:none;stroke:#4169e1;stroke-dasharray:0.8,1.32;stroke-dashoffset:0;stroke-width:0.8;"/>
     </g>
     <g id="line2d_92">
      <g>
       <use style="stroke:#000000;stroke-width:0.6;" x="144" xlink:href="#mfea2256d94" y="309.723677"/>
      </g>
     </g>
    </g>
    <g id="ytick_27">
     <g id="line2d_93">
      <path clip-path="url(#pd8ea6fbbb8)" d="M 144 294.674753 
L 1036.8 294.674753 
" style="fill:none;stroke:#4169e1;stroke-dasharray:0.8,1.32;stroke-dashoffset:0;stroke-width:0.8;"/>
     </g>
     <g id="line2d_94">
      <g>
       <use style="stroke:#000000;stroke-width:0.6;" x="144" xlink:href="#mfea2256d94" y="294.674753"/>
      </g>
     </g>
    </g>
    <g id="ytick_28">
     <g id="line2d_95">
      <path clip-path="url(#pd8ea6fbbb8)" d="M 144 279.62583 
L 1036.8 279.62583 
" style="fill:none;stroke:#4169e1;stroke-dasharray:0.8,1.32;stroke-dashoffset:0;stroke-width:0.8;"/>
     </g>
     <g id="line2d_96">
      <g>
       <use style="stroke:#000000;stroke-width:0.6;" x="144" xlink:href="#mfea2256d94" y="279.62583"/>
      </g>
     </g>
    </g>
    <g id="ytick_29">
     <g id="line2d_97">
      <path clip-path="url(#pd8ea6fbbb8)" d="M 144 249.527982 
L 1036.8 249.527982 
" style="fill:none;stroke:#4169e1;stroke-dasharray:0.8,1.32;stroke-dashoffset:0;stroke-width:0.8;"/>
     </g>
     <g id="line2d_98">
      <g>
       <use style="stroke:#000000;stroke-width:0.6;" x="144" xlink:href="#mfea2256d94" y="249.527982"/>
      </g>
     </g>
    </g>
    <g id="ytick_30">
     <g id="line2d_99">
      <path clip-path="url(#pd8ea6fbbb8)" d="M 144 234.479058 
L 1036.8 234.479058 
" style="fill:none;stroke:#4169e1;stroke-dasharray:0.8,1.32;stroke-dashoffset:0;stroke-width:0.8;"/>
     </g>
     <g id="line2d_100">
      <g>
       <use style="stroke:#000000;stroke-width:0.6;" x="144" xlink:href="#mfea2256d94" y="234.479058"/>
      </g>
     </g>
    </g>
    <g id="ytick_31">
     <g id="line2d_101">
      <path clip-path="url(#pd8ea6fbbb8)" d="M 144 219.430135 
L 1036.8 219.430135 
" style="fill:none;stroke:#4169e1;stroke-dasharray:0.8,1.32;stroke-dashoffset:0;stroke-width:0.8;"/>
     </g>
     <g id="line2d_102">
      <g>
       <use style="stroke:#000000;stroke-width:0.6;" x="144" xlink:href="#mfea2256d94" y="219.430135"/>
      </g>
     </g>
    </g>
    <g id="ytick_32">
     <g id="line2d_103">
      <path clip-path="url(#pd8ea6fbbb8)" d="M 144 204.381211 
L 1036.8 204.381211 
" style="fill:none;stroke:#4169e1;stroke-dasharray:0.8,1.32;stroke-dashoffset:0;stroke-width:0.8;"/>
     </g>
     <g id="line2d_104">
      <g>
       <use style="stroke:#000000;stroke-width:0.6;" x="144" xlink:href="#mfea2256d94" y="204.381211"/>
      </g>
     </g>
    </g>
    <g id="ytick_33">
     <g id="line2d_105">
      <path clip-path="url(#pd8ea6fbbb8)" d="M 144 174.283363 
L 1036.8 174.283363 
" style="fill:none;stroke:#4169e1;stroke-dasharray:0.8,1.32;stroke-dashoffset:0;stroke-width:0.8;"/>
     </g>
     <g id="line2d_106">
      <g>
       <use style="stroke:#000000;stroke-width:0.6;" x="144" xlink:href="#mfea2256d94" y="174.283363"/>
      </g>
     </g>
    </g>
    <g id="ytick_34">
     <g id="line2d_107">
      <path clip-path="url(#pd8ea6fbbb8)" d="M 144 159.23444 
L 1036.8 159.23444 
" style="fill:none;stroke:#4169e1;stroke-dasharray:0.8,1.32;stroke-dashoffset:0;stroke-width:0.8;"/>
     </g>
     <g id="line2d_108">
      <g>
       <use style="stroke:#000000;stroke-width:0.6;" x="144" xlink:href="#mfea2256d94" y="159.23444"/>
      </g>
     </g>
    </g>
    <g id="ytick_35">
     <g id="line2d_109">
      <path clip-path="url(#pd8ea6fbbb8)" d="M 144 144.185516 
L 1036.8 144.185516 
" style="fill:none;stroke:#4169e1;stroke-dasharray:0.8,1.32;stroke-dashoffset:0;stroke-width:0.8;"/>
     </g>
     <g id="line2d_110">
      <g>
       <use style="stroke:#000000;stroke-width:0.6;" x="144" xlink:href="#mfea2256d94" y="144.185516"/>
      </g>
     </g>
    </g>
    <g id="ytick_36">
     <g id="line2d_111">
      <path clip-path="url(#pd8ea6fbbb8)" d="M 144 129.136592 
L 1036.8 129.136592 
" style="fill:none;stroke:#4169e1;stroke-dasharray:0.8,1.32;stroke-dashoffset:0;stroke-width:0.8;"/>
     </g>
     <g id="line2d_112">
      <g>
       <use style="stroke:#000000;stroke-width:0.6;" x="144" xlink:href="#mfea2256d94" y="129.136592"/>
      </g>
     </g>
    </g>
    <g id="ytick_37">
     <g id="line2d_113">
      <path clip-path="url(#pd8ea6fbbb8)" d="M 144 99.038745 
L 1036.8 99.038745 
" style="fill:none;stroke:#4169e1;stroke-dasharray:0.8,1.32;stroke-dashoffset:0;stroke-width:0.8;"/>
     </g>
     <g id="line2d_114">
      <g>
       <use style="stroke:#000000;stroke-width:0.6;" x="144" xlink:href="#mfea2256d94" y="99.038745"/>
      </g>
     </g>
    </g>
    <g id="text_15">
     <!-- Напряжение, В -->
     <g transform="translate(115.017187 403.659375)rotate(-90)scale(0.1 -0.1)">
      <defs>
       <path d="M 628 4666 
L 1259 4666 
L 1259 2753 
L 3553 2753 
L 3553 4666 
L 4184 4666 
L 4184 0 
L 3553 0 
L 3553 2222 
L 1259 2222 
L 1259 0 
L 628 0 
L 628 4666 
z
" id="DejaVuSans-41d" transform="scale(0.015625)"/>
       <path d="M 2194 1759 
Q 1497 1759 1228 1600 
Q 959 1441 959 1056 
Q 959 750 1161 570 
Q 1363 391 1709 391 
Q 2188 391 2477 730 
Q 2766 1069 2766 1631 
L 2766 1759 
L 2194 1759 
z
M 3341 1997 
L 3341 0 
L 2766 0 
L 2766 531 
Q 2569 213 2275 61 
Q 1981 -91 1556 -91 
Q 1019 -91 701 211 
Q 384 513 384 1019 
Q 384 1609 779 1909 
Q 1175 2209 1959 2209 
L 2766 2209 
L 2766 2266 
Q 2766 2663 2505 2880 
Q 2244 3097 1772 3097 
Q 1472 3097 1187 3025 
Q 903 2953 641 2809 
L 641 3341 
Q 956 3463 1253 3523 
Q 1550 3584 1831 3584 
Q 2591 3584 2966 3190 
Q 3341 2797 3341 1997 
z
" id="DejaVuSans-430" transform="scale(0.015625)"/>
       <path d="M 3603 3500 
L 3603 0 
L 3025 0 
L 3025 3041 
L 1159 3041 
L 1159 0 
L 581 0 
L 581 3500 
L 3603 3500 
z
" id="DejaVuSans-43f" transform="scale(0.015625)"/>
       <path d="M 2597 3500 
L 3169 3500 
L 3169 1856 
L 4697 3500 
L 5366 3500 
L 4109 2153 
L 5547 0 
L 4931 0 
L 3753 1769 
L 3169 1141 
L 3169 0 
L 2597 0 
L 2597 1141 
L 2013 1769 
L 834 0 
L 219 0 
L 1656 2153 
L 400 3500 
L 1069 3500 
L 2597 1856 
L 2597 3500 
z
" id="DejaVuSans-436" transform="scale(0.015625)"/>
       <path d="M 581 3500 
L 1159 3500 
L 1159 2072 
L 3025 2072 
L 3025 3500 
L 3603 3500 
L 3603 0 
L 3025 0 
L 3025 1613 
L 1159 1613 
L 1159 0 
L 581 0 
L 581 3500 
z
" id="DejaVuSans-43d" transform="scale(0.015625)"/>
       <path d="M 3578 3500 
L 3578 0 
L 3006 0 
L 3006 2809 
L 1319 0 
L 581 0 
L 581 3500 
L 1153 3500 
L 1153 697 
L 2838 3500 
L 3578 3500 
z
" id="DejaVuSans-438" transform="scale(0.015625)"/>
      </defs>
      <use xlink:href="#DejaVuSans-41d"/>
      <use x="75.195312" xlink:href="#DejaVuSans-430"/>
      <use x="136.474609" xlink:href="#DejaVuSans-43f"/>
      <use x="201.855469" xlink:href="#DejaVuSans-440"/>
      <use x="265.332031" xlink:href="#DejaVuSans-44f"/>
      <use x="325.488281" xlink:href="#DejaVuSans-436"/>
      <use x="415.576172" xlink:href="#DejaVuSans-435"/>
      <use x="477.099609" xlink:href="#DejaVuSans-43d"/>
      <use x="542.480469" xlink:href="#DejaVuSans-438"/>
      <use x="607.470703" xlink:href="#DejaVuSans-435"/>
      <use x="668.994141" xlink:href="#DejaVuSans-2c"/>
      <use x="700.78125" xlink:href="#DejaVuSans-20"/>
      <use x="732.568359" xlink:href="#DejaVuSans-412"/>
     </g>
    </g>
   </g>
   <g id="line2d_115">
    <path clip-path="url(#pd8ea6fbbb8)" d="M 144 638.8601 
L 144.995318 631.100498 
L 147.981271 619.461096 
L 148.976589 611.701495 
L 150.967224 603.941894 
L 151.962542 596.182292 
L 152.95786 596.182292 
L 153.953177 588.422691 
L 154.948495 588.422691 
L 155.943813 580.66309 
L 156.93913 580.66309 
L 157.934448 569.023688 
L 170.873579 518.586279 
L 171.868896 518.586279 
L 172.864214 510.826678 
L 176.845485 495.307475 
L 177.840803 495.307475 
L 178.83612 487.547874 
L 179.831438 487.547874 
L 187.79398 456.509469 
L 188.789298 456.509469 
L 192.770569 440.990266 
L 193.765886 440.990266 
L 197.747157 425.471064 
L 198.742475 425.471064 
L 200.73311 417.711462 
L 201.728428 417.711462 
L 203.719064 409.951861 
L 204.714381 409.951861 
L 206.705017 402.19226 
L 207.700334 402.19226 
L 209.69097 394.432658 
L 211.681605 394.432658 
L 212.676923 386.673057 
L 213.672241 386.673057 
L 214.667559 382.793256 
L 215.662876 382.793256 
L 217.653512 375.033655 
L 218.648829 375.033655 
L 219.644147 371.153854 
L 220.639465 371.153854 
L 222.6301 363.394253 
L 224.620736 363.394253 
L 226.611371 355.634652 
L 228.602007 355.634652 
L 230.592642 347.87505 
L 231.58796 347.87505 
L 232.583278 343.99525 
L 233.578595 343.99525 
L 234.573913 340.115449 
L 235.569231 340.115449 
L 236.564548 336.235648 
L 237.559866 336.235648 
L 238.555184 332.355848 
L 241.541137 332.355848 
L 242.536455 324.596246 
L 244.52709 324.596246 
L 245.522408 320.716446 
L 246.517726 320.716446 
L 247.513043 316.836645 
L 249.503679 316.836645 
L 250.498997 312.956844 
L 251.494314 312.956844 
L 252.489632 309.077044 
L 253.48495 309.077044 
L 254.480268 305.197243 
L 257.466221 305.197243 
L 259.456856 297.437642 
L 261.447492 297.437642 
L 262.442809 293.557841 
L 264.433445 293.557841 
L 265.428763 289.678041 
L 266.42408 289.678041 
L 267.419398 285.79824 
L 270.405351 285.79824 
L 271.400669 281.918439 
L 272.395987 281.918439 
L 273.391304 278.038639 
L 275.38194 278.038639 
L 276.377258 274.158838 
L 279.363211 274.158838 
L 281.353846 266.399237 
L 287.325753 266.399237 
L 289.316388 258.639635 
L 293.297659 258.639635 
L 294.292977 254.759835 
L 297.27893 254.759835 
L 298.274247 250.880034 
L 300.264883 250.880034 
L 301.260201 247.000233 
L 303.250836 247.000233 
L 304.246154 243.120433 
L 308.227425 243.120433 
L 309.222742 239.240632 
L 313.204013 239.240632 
L 314.199331 235.360831 
L 318.180602 235.360831 
L 319.17592 231.481031 
L 323.157191 231.481031 
L 324.152508 227.60123 
L 326.143144 227.60123 
L 327.138462 223.721429 
L 328.133779 227.60123 
L 329.129097 223.721429 
L 332.11505 223.721429 
L 333.110368 219.841629 
L 340.077592 219.841629 
L 341.07291 215.961828 
L 346.049498 215.961828 
L 347.044816 212.082027 
L 352.021405 212.082027 
L 353.016722 208.202227 
L 356.997993 208.202227 
L 357.993311 204.322426 
L 368.941806 204.322426 
L 369.937124 200.442625 
L 377.899666 200.442625 
L 378.894983 196.562825 
L 379.890301 200.442625 
L 380.885619 196.562825 
L 385.862207 196.562825 
L 386.857525 192.683024 
L 387.852843 196.562825 
L 388.848161 192.683024 
L 397.80602 192.683024 
L 398.801338 188.803223 
L 407.759197 188.803223 
L 408.754515 184.923423 
L 417.712375 184.923423 
L 418.707692 181.043622 
L 419.70301 184.923423 
L 420.698328 184.923423 
L 421.693645 181.043622 
L 430.651505 181.043622 
L 431.646823 177.163821 
L 432.64214 181.043622 
L 433.637458 181.043622 
L 434.632776 177.163821 
L 435.628094 181.043622 
L 436.623411 181.043622 
L 437.618729 177.163821 
L 445.581271 177.163821 
L 446.576589 173.284021 
L 447.571906 177.163821 
L 448.567224 177.163821 
L 449.562542 173.284021 
L 450.55786 173.284021 
L 451.553177 177.163821 
L 454.53913 177.163821 
L 455.534448 173.284021 
L 474.445485 173.284021 
L 475.440803 169.40422 
L 476.43612 173.284021 
L 477.431438 169.40422 
L 499.328428 169.40422 
L 500.323746 165.524419 
L 501.319064 165.524419 
L 502.314381 169.40422 
L 503.309699 169.40422 
L 504.305017 165.524419 
L 505.300334 165.524419 
L 506.295652 169.40422 
L 507.29097 165.524419 
L 524.211371 165.524419 
L 525.206689 161.644619 
L 526.202007 169.40422 
L 527.197324 173.284021 
L 528.192642 173.284021 
L 529.18796 181.043622 
L 531.178595 188.803223 
L 532.173913 196.562825 
L 533.169231 196.562825 
L 534.164548 204.322426 
L 535.159866 204.322426 
L 536.155184 212.082027 
L 538.145819 219.841629 
L 539.141137 219.841629 
L 540.136455 227.60123 
L 541.131773 227.60123 
L 551.08495 266.399237 
L 552.080268 266.399237 
L 557.056856 285.79824 
L 558.052174 285.79824 
L 559.047492 293.557841 
L 560.042809 293.557841 
L 561.038127 297.437642 
L 562.033445 297.437642 
L 567.010033 316.836645 
L 568.005351 316.836645 
L 571.986622 332.355848 
L 572.98194 332.355848 
L 574.972575 340.115449 
L 575.967893 340.115449 
L 576.963211 343.99525 
L 577.958528 343.99525 
L 580.944482 355.634652 
L 581.939799 355.634652 
L 582.935117 359.514452 
L 583.930435 359.514452 
L 585.92107 367.274054 
L 586.916388 367.274054 
L 588.907023 375.033655 
L 589.902341 375.033655 
L 590.897659 378.913456 
L 591.892977 378.913456 
L 592.888294 382.793256 
L 593.883612 382.793256 
L 594.87893 386.673057 
L 595.874247 386.673057 
L 596.869565 390.552858 
L 597.864883 390.552858 
L 598.860201 394.432658 
L 599.855518 394.432658 
L 600.850836 398.312459 
L 601.846154 398.312459 
L 603.836789 406.07206 
L 605.827425 406.07206 
L 606.822742 409.951861 
L 607.81806 409.951861 
L 608.813378 413.831662 
L 609.808696 413.831662 
L 611.799331 421.591263 
L 613.789967 421.591263 
L 614.785284 425.471064 
L 615.780602 425.471064 
L 616.77592 429.350864 
L 617.771237 429.350864 
L 618.766555 433.230665 
L 619.761873 433.230665 
L 620.757191 437.110465 
L 622.747826 437.110465 
L 623.743144 440.990266 
L 624.738462 440.990266 
L 625.733779 444.870067 
L 626.729097 444.870067 
L 627.724415 448.749867 
L 628.719732 448.749867 
L 629.71505 452.629668 
L 632.701003 452.629668 
L 634.691639 460.389269 
L 636.682274 460.389269 
L 637.677592 464.26907 
L 638.67291 464.26907 
L 639.668227 468.148871 
L 642.654181 468.148871 
L 643.649498 472.028671 
L 644.644816 472.028671 
L 645.640134 475.908472 
L 647.630769 475.908472 
L 648.626087 479.788273 
L 649.621405 479.788273 
L 650.616722 483.668073 
L 652.607358 483.668073 
L 653.602676 487.547874 
L 656.588629 487.547874 
L 657.583946 491.427675 
L 659.574582 491.427675 
L 660.5699 495.307475 
L 662.560535 495.307475 
L 663.555853 499.187276 
L 666.541806 499.187276 
L 667.537124 503.067077 
L 668.532441 503.067077 
L 669.527759 506.946877 
L 672.513712 506.946877 
L 673.50903 510.826678 
L 675.499666 510.826678 
L 676.494983 514.706479 
L 677.490301 514.706479 
L 678.485619 518.586279 
L 684.457525 518.586279 
L 685.452843 522.46608 
L 687.443478 522.46608 
L 688.438796 526.345881 
L 690.429431 526.345881 
L 691.424749 530.225681 
L 695.40602 530.225681 
L 696.401338 534.105482 
L 699.387291 534.105482 
L 700.382609 537.985283 
L 702.373244 537.985283 
L 703.368562 541.865083 
L 707.349833 541.865083 
L 708.345151 545.744884 
L 712.326421 545.744884 
L 713.321739 549.624685 
L 714.317057 545.744884 
L 715.312375 549.624685 
L 717.30301 549.624685 
L 718.298328 553.504485 
L 722.279599 553.504485 
L 723.274916 557.384286 
L 727.256187 557.384286 
L 728.251505 561.264087 
L 732.232776 561.264087 
L 733.228094 565.143887 
L 739.2 565.143887 
L 740.195318 569.023688 
L 744.176589 569.023688 
L 745.171906 572.903488 
L 749.153177 572.903488 
L 750.148495 576.783289 
L 751.143813 572.903488 
L 752.13913 576.783289 
L 755.125084 576.783289 
L 756.120401 580.66309 
L 766.073579 580.66309 
L 767.068896 584.54289 
L 774.03612 584.54289 
L 775.031438 588.422691 
L 780.008027 588.422691 
L 781.003344 592.302492 
L 789.961204 592.302492 
L 790.956522 596.182292 
L 800.909699 596.182292 
L 801.905017 600.062093 
L 809.867559 600.062093 
L 810.862876 603.941894 
L 811.858194 600.062093 
L 812.853512 603.941894 
L 823.802007 603.941894 
L 824.797324 607.821694 
L 833.755184 607.821694 
L 834.750502 611.701495 
L 850.675585 611.701495 
L 851.670903 615.581296 
L 867.595987 615.581296 
L 868.591304 619.461096 
L 869.586622 615.581296 
L 870.58194 619.461096 
L 886.507023 619.461096 
L 887.502341 623.340897 
L 908.404013 623.340897 
L 909.399331 627.220698 
L 910.394649 623.340897 
L 913.380602 623.340897 
L 914.37592 627.220698 
L 915.371237 627.220698 
L 916.366555 623.340897 
L 917.361873 627.220698 
L 937.268227 627.220698 
L 938.263545 631.100498 
L 939.258863 627.220698 
L 947.221405 627.220698 
L 948.216722 631.100498 
L 950.207358 631.100498 
L 951.202676 627.220698 
L 952.197993 631.100498 
L 979.071572 631.100498 
L 980.06689 634.980299 
L 981.062207 631.100498 
L 983.052843 631.100498 
L 984.048161 634.980299 
L 1035.804682 634.980299 
L 1036.8 638.8601 
L 1036.8 638.8601 
" style="fill:none;stroke:#ffc0cb;stroke-linecap:square;stroke-width:3;"/>
   </g>
   <g id="patch_3">
    <path d="M 144 640.8 
L 144 86.4 
" style="fill:none;stroke:#000000;stroke-linecap:square;stroke-linejoin:miter;stroke-width:0.8;"/>
   </g>
   <g id="patch_4">
    <path d="M 1036.8 640.8 
L 1036.8 86.4 
" style="fill:none;stroke:#000000;stroke-linecap:square;stroke-linejoin:miter;stroke-width:0.8;"/>
   </g>
   <g id="patch_5">
    <path d="M 144 640.8 
L 1036.8 640.8 
" style="fill:none;stroke:#000000;stroke-linecap:square;stroke-linejoin:miter;stroke-width:0.8;"/>
   </g>
   <g id="patch_6">
    <path d="M 144 86.4 
L 1036.8 86.4 
" style="fill:none;stroke:#000000;stroke-linecap:square;stroke-linejoin:miter;stroke-width:0.8;"/>
   </g>
   <g id="text_16">
    <!-- Время зарядки 4.213 -->
    <g transform="translate(781.003344 325.977691)scale(0.1 -0.1)">
     <defs>
      <path d="M 2206 1888 
Q 2594 1813 2809 1584 
Q 3025 1356 3025 1019 
Q 3025 478 2622 193 
Q 2219 -91 1475 -91 
Q 1225 -91 961 -47 
Q 697 -3 416 84 
L 416 619 
Q 638 503 903 445 
Q 1169 388 1459 388 
Q 1931 388 2195 563 
Q 2459 738 2459 1019 
Q 2459 1294 2225 1461 
Q 1991 1628 1563 1628 
L 1100 1628 
L 1100 2103 
L 1584 2103 
Q 1947 2103 2158 2242 
Q 2369 2381 2369 2600 
Q 2369 2800 2151 2944 
Q 1934 3088 1563 3088 
Q 1341 3088 1089 3047 
Q 838 3006 534 2916 
L 534 3438 
Q 841 3513 1106 3550 
Q 1372 3588 1609 3588 
Q 2222 3588 2576 3342 
Q 2931 3097 2931 2656 
Q 2931 2366 2743 2164 
Q 2556 1963 2206 1888 
z
" id="DejaVuSans-437" transform="scale(0.015625)"/>
      <path d="M 1384 459 
L 3053 459 
L 3053 3041 
L 1844 3041 
L 1844 2603 
Q 1844 1316 1475 628 
L 1384 459 
z
M 550 459 
Q 834 584 959 850 
Q 1266 1509 1266 2838 
L 1266 3500 
L 3631 3500 
L 3631 459 
L 4091 459 
L 4091 -884 
L 3631 -884 
L 3631 0 
L 794 0 
L 794 -884 
L 334 -884 
L 334 459 
L 550 459 
z
" id="DejaVuSans-434" transform="scale(0.015625)"/>
      <path d="M 581 3500 
L 1153 3500 
L 1153 1856 
L 2775 3500 
L 3481 3500 
L 2144 2147 
L 3653 0 
L 3009 0 
L 1769 1766 
L 1153 1141 
L 1153 0 
L 581 0 
L 581 3500 
z
" id="DejaVuSans-43a" transform="scale(0.015625)"/>
     </defs>
     <use xlink:href="#DejaVuSans-412"/>
     <use x="68.603516" xlink:href="#DejaVuSans-440"/>
     <use x="132.080078" xlink:href="#DejaVuSans-435"/>
     <use x="193.603516" xlink:href="#DejaVuSans-43c"/>
     <use x="269.042969" xlink:href="#DejaVuSans-44f"/>
     <use x="329.199219" xlink:href="#DejaVuSans-20"/>
     <use x="360.986328" xlink:href="#DejaVuSans-437"/>
     <use x="414.160156" xlink:href="#DejaVuSans-430"/>
     <use x="475.439453" xlink:href="#DejaVuSans-440"/>
     <use x="538.916016" xlink:href="#DejaVuSans-44f"/>
     <use x="599.072266" xlink:href="#DejaVuSans-434"/>
     <use x="668.212891" xlink:href="#DejaVuSans-43a"/>
     <use x="728.613281" xlink:href="#DejaVuSans-438"/>
     <use x="793.603516" xlink:href="#DejaVuSans-20"/>
     <use x="825.390625" xlink:href="#DejaVuSans-34"/>
     <use x="889.013672" xlink:href="#DejaVuSans-2e"/>
     <use x="920.800781" xlink:href="#DejaVuSans-32"/>
     <use x="984.423828" xlink:href="#DejaVuSans-31"/>
     <use x="1048.046875" xlink:href="#DejaVuSans-33"/>
    </g>
   </g>
   <g id="text_17">
    <!-- Время разрядки 5.654 -->
    <g transform="translate(781.003344 401.222309)scale(0.1 -0.1)">
     <use xlink:href="#DejaVuSans-412"/>
     <use x="68.603516" xlink:href="#DejaVuSans-440"/>
     <use x="132.080078" xlink:href="#DejaVuSans-435"/>
     <use x="193.603516" xlink:href="#DejaVuSans-43c"/>
     <use x="269.042969" xlink:href="#DejaVuSans-44f"/>
     <use x="329.199219" xlink:href="#DejaVuSans-20"/>
     <use x="360.986328" xlink:href="#DejaVuSans-440"/>
     <use x="424.462891" xlink:href="#DejaVuSans-430"/>
     <use x="485.742188" xlink:href="#DejaVuSans-437"/>
     <use x="538.916016" xlink:href="#DejaVuSans-440"/>
     <use x="602.392578" xlink:href="#DejaVuSans-44f"/>
     <use x="662.548828" xlink:href="#DejaVuSans-434"/>
     <use x="731.689453" xlink:href="#DejaVuSans-43a"/>
     <use x="792.089844" xlink:href="#DejaVuSans-438"/>
     <use x="857.080078" xlink:href="#DejaVuSans-20"/>
     <use x="888.867188" xlink:href="#DejaVuSans-35"/>
     <use x="952.490234" xlink:href="#DejaVuSans-2e"/>
     <use x="984.277344" xlink:href="#DejaVuSans-36"/>
     <use x="1047.900391" xlink:href="#DejaVuSans-35"/>
     <use x="1111.523438" xlink:href="#DejaVuSans-34"/>
    </g>
   </g>
   <g id="text_18">
    <!-- Процесс заряда и -->
    <g transform="translate(534.21 53.52525)scale(0.12 -0.12)">
     <defs>
      <path d="M 4184 4666 
L 4184 0 
L 3553 0 
L 3553 4134 
L 1259 4134 
L 1259 0 
L 628 0 
L 628 4666 
L 4184 4666 
z
" id="DejaVuSans-41f" transform="scale(0.015625)"/>
      <path d="M 1959 3097 
Q 1497 3097 1228 2736 
Q 959 2375 959 1747 
Q 959 1119 1226 758 
Q 1494 397 1959 397 
Q 2419 397 2687 759 
Q 2956 1122 2956 1747 
Q 2956 2369 2687 2733 
Q 2419 3097 1959 3097 
z
M 1959 3584 
Q 2709 3584 3137 3096 
Q 3566 2609 3566 1747 
Q 3566 888 3137 398 
Q 2709 -91 1959 -91 
Q 1206 -91 779 398 
Q 353 888 353 1747 
Q 353 2609 779 3096 
Q 1206 3584 1959 3584 
z
" id="DejaVuSans-43e" transform="scale(0.015625)"/>
      <path d="M 3603 0 
L 581 0 
L 581 3500 
L 1159 3500 
L 1159 459 
L 3025 459 
L 3025 3500 
L 3603 3500 
L 3603 459 
L 4063 459 
L 4063 -884 
L 3603 -884 
L 3603 0 
z
" id="DejaVuSans-446" transform="scale(0.015625)"/>
      <path d="M 3122 3366 
L 3122 2828 
Q 2878 2963 2633 3030 
Q 2388 3097 2138 3097 
Q 1578 3097 1268 2742 
Q 959 2388 959 1747 
Q 959 1106 1268 751 
Q 1578 397 2138 397 
Q 2388 397 2633 464 
Q 2878 531 3122 666 
L 3122 134 
Q 2881 22 2623 -34 
Q 2366 -91 2075 -91 
Q 1284 -91 818 406 
Q 353 903 353 1747 
Q 353 2603 823 3093 
Q 1294 3584 2113 3584 
Q 2378 3584 2631 3529 
Q 2884 3475 3122 3366 
z
" id="DejaVuSans-441" transform="scale(0.015625)"/>
     </defs>
     <use xlink:href="#DejaVuSans-41f"/>
     <use x="75.195312" xlink:href="#DejaVuSans-440"/>
     <use x="138.671875" xlink:href="#DejaVuSans-43e"/>
     <use x="199.853516" xlink:href="#DejaVuSans-446"/>
     <use x="267.919922" xlink:href="#DejaVuSans-435"/>
     <use x="329.443359" xlink:href="#DejaVuSans-441"/>
     <use x="384.423828" xlink:href="#DejaVuSans-441"/>
     <use x="439.404297" xlink:href="#DejaVuSans-20"/>
     <use x="471.191406" xlink:href="#DejaVuSans-437"/>
     <use x="524.365234" xlink:href="#DejaVuSans-430"/>
     <use x="585.644531" xlink:href="#DejaVuSans-440"/>
     <use x="649.121094" xlink:href="#DejaVuSans-44f"/>
     <use x="709.277344" xlink:href="#DejaVuSans-434"/>
     <use x="778.417969" xlink:href="#DejaVuSans-430"/>
     <use x="839.697266" xlink:href="#DejaVuSans-20"/>
     <use x="871.484375" xlink:href="#DejaVuSans-438"/>
    </g>
    <!-- разряда конденсатора -->
    <g transform="translate(517.964062 66.962625)scale(0.12 -0.12)">
     <defs>
      <path d="M 188 3500 
L 3541 3500 
L 3541 3041 
L 2147 3041 
L 2147 0 
L 1581 0 
L 1581 3041 
L 188 3041 
L 188 3500 
z
" id="DejaVuSans-442" transform="scale(0.015625)"/>
     </defs>
     <use xlink:href="#DejaVuSans-440"/>
     <use x="63.476562" xlink:href="#DejaVuSans-430"/>
     <use x="124.755859" xlink:href="#DejaVuSans-437"/>
     <use x="177.929688" xlink:href="#DejaVuSans-440"/>
     <use x="241.40625" xlink:href="#DejaVuSans-44f"/>
     <use x="301.5625" xlink:href="#DejaVuSans-434"/>
     <use x="370.703125" xlink:href="#DejaVuSans-430"/>
     <use x="431.982422" xlink:href="#DejaVuSans-20"/>
     <use x="463.769531" xlink:href="#DejaVuSans-43a"/>
     <use x="524.169922" xlink:href="#DejaVuSans-43e"/>
     <use x="585.351562" xlink:href="#DejaVuSans-43d"/>
     <use x="650.732422" xlink:href="#DejaVuSans-434"/>
     <use x="719.873047" xlink:href="#DejaVuSans-435"/>
     <use x="781.396484" xlink:href="#DejaVuSans-43d"/>
     <use x="846.777344" xlink:href="#DejaVuSans-441"/>
     <use x="901.757812" xlink:href="#DejaVuSans-430"/>
     <use x="963.037109" xlink:href="#DejaVuSans-442"/>
     <use x="1021.289062" xlink:href="#DejaVuSans-43e"/>
     <use x="1082.470703" xlink:href="#DejaVuSans-440"/>
     <use x="1145.947266" xlink:href="#DejaVuSans-430"/>
    </g>
    <!-- в RC-цепочке -->
    <g transform="translate(548.503125 80.4)scale(0.12 -0.12)">
     <defs>
      <path d="M 1156 1613 
L 1156 459 
L 1975 459 
Q 2369 459 2575 607 
Q 2781 756 2781 1038 
Q 2781 1319 2575 1466 
Q 2369 1613 1975 1613 
L 1156 1613 
z
M 1156 3041 
L 1156 2072 
L 1913 2072 
Q 2238 2072 2444 2201 
Q 2650 2331 2650 2563 
Q 2650 2794 2444 2917 
Q 2238 3041 1913 3041 
L 1156 3041 
z
M 581 3500 
L 1950 3500 
Q 2566 3500 2897 3275 
Q 3228 3050 3228 2634 
Q 3228 2313 3059 2123 
Q 2891 1934 2559 1888 
Q 2956 1813 3175 1575 
Q 3394 1338 3394 981 
Q 3394 513 3033 256 
Q 2672 0 2003 0 
L 581 0 
L 581 3500 
z
" id="DejaVuSans-432" transform="scale(0.015625)"/>
      <path d="M 2841 2188 
Q 3044 2119 3236 1894 
Q 3428 1669 3622 1275 
L 4263 0 
L 3584 0 
L 2988 1197 
Q 2756 1666 2539 1819 
Q 2322 1972 1947 1972 
L 1259 1972 
L 1259 0 
L 628 0 
L 628 4666 
L 2053 4666 
Q 2853 4666 3247 4331 
Q 3641 3997 3641 3322 
Q 3641 2881 3436 2590 
Q 3231 2300 2841 2188 
z
M 1259 4147 
L 1259 2491 
L 2053 2491 
Q 2509 2491 2742 2702 
Q 2975 2913 2975 3322 
Q 2975 3731 2742 3939 
Q 2509 4147 2053 4147 
L 1259 4147 
z
" id="DejaVuSans-52" transform="scale(0.015625)"/>
      <path d="M 4122 4306 
L 4122 3641 
Q 3803 3938 3442 4084 
Q 3081 4231 2675 4231 
Q 1875 4231 1450 3742 
Q 1025 3253 1025 2328 
Q 1025 1406 1450 917 
Q 1875 428 2675 428 
Q 3081 428 3442 575 
Q 3803 722 4122 1019 
L 4122 359 
Q 3791 134 3420 21 
Q 3050 -91 2638 -91 
Q 1578 -91 968 557 
Q 359 1206 359 2328 
Q 359 3453 968 4101 
Q 1578 4750 2638 4750 
Q 3056 4750 3426 4639 
Q 3797 4528 4122 4306 
z
" id="DejaVuSans-43" transform="scale(0.015625)"/>
      <path d="M 313 2009 
L 1997 2009 
L 1997 1497 
L 313 1497 
L 313 2009 
z
" id="DejaVuSans-2d" transform="scale(0.015625)"/>
      <path d="M 2625 0 
L 2625 1472 
L 1553 1472 
Q 1075 1472 756 1769 
Q 469 2038 469 2613 
L 469 3500 
L 1044 3500 
L 1044 2666 
Q 1044 2300 1206 2116 
Q 1372 1931 1697 1931 
L 2625 1931 
L 2625 3500 
L 3200 3500 
L 3200 0 
L 2625 0 
z
" id="DejaVuSans-447" transform="scale(0.015625)"/>
     </defs>
     <use xlink:href="#DejaVuSans-432"/>
     <use x="58.935547" xlink:href="#DejaVuSans-20"/>
     <use x="90.722656" xlink:href="#DejaVuSans-52"/>
     <use x="155.205078" xlink:href="#DejaVuSans-43"/>
     <use x="225.029297" xlink:href="#DejaVuSans-2d"/>
     <use x="261.113281" xlink:href="#DejaVuSans-446"/>
     <use x="329.179688" xlink:href="#DejaVuSans-435"/>
     <use x="390.703125" xlink:href="#DejaVuSans-43f"/>
     <use x="456.083984" xlink:href="#DejaVuSans-43e"/>
     <use x="517.265625" xlink:href="#DejaVuSans-447"/>
     <use x="576.347656" xlink:href="#DejaVuSans-43a"/>
     <use x="636.748047" xlink:href="#DejaVuSans-435"/>
    </g>
   </g>
   <g id="legend_1">
    <g id="patch_7">
     <path d="M 979.235937 123.75625 
L 1029.8 123.75625 
Q 1031.8 123.75625 1031.8 121.75625 
L 1031.8 93.4 
Q 1031.8 91.4 1029.8 91.4 
L 979.235937 91.4 
Q 977.235937 91.4 977.235937 93.4 
L 977.235937 121.75625 
Q 977.235937 123.75625 979.235937 123.75625 
z
" style="fill:#fdf5e6;opacity:0.8;stroke:#ff0000;stroke-linejoin:miter;"/>
    </g>
    <g id="text_19">
     <!-- Данные -->
     <g transform="translate(983.985937 102.998437)scale(0.1 -0.1)">
      <defs>
       <path d="M 1459 531 
L 3522 531 
L 3522 4134 
L 2006 4134 
L 2006 3472 
Q 2006 1913 1656 878 
Q 1584 666 1459 531 
z
M 538 531 
Q 956 728 1075 1103 
Q 1378 2066 1378 3784 
L 1378 4666 
L 4153 4666 
L 4153 531 
L 4684 531 
L 4684 -1003 
L 4153 -1003 
L 4153 0 
L 847 0 
L 847 -1003 
L 316 -1003 
L 316 531 
L 538 531 
z
" id="DejaVuSans-414" transform="scale(0.015625)"/>
       <path d="M 3907 3500 
L 4482 3500 
L 4482 0 
L 3907 0 
L 3907 3500 
z
M 4195 3584 
L 4195 3584 
z
M 2781 1038 
Q 2781 1319 2576 1466 
Q 2372 1613 1978 1613 
L 1159 1613 
L 1159 459 
L 1978 459 
Q 2372 459 2576 607 
Q 2781 756 2781 1038 
z
M 581 3500 
L 1159 3500 
L 1159 2072 
L 2003 2072 
Q 2672 2072 3033 1817 
Q 3394 1563 3394 1038 
Q 3394 513 3033 256 
Q 2672 0 2003 0 
L 581 0 
L 581 3500 
z
" id="DejaVuSans-44b" transform="scale(0.015625)"/>
      </defs>
      <use xlink:href="#DejaVuSans-414"/>
      <use x="78.125" xlink:href="#DejaVuSans-430"/>
      <use x="139.404297" xlink:href="#DejaVuSans-43d"/>
      <use x="204.785156" xlink:href="#DejaVuSans-43d"/>
      <use x="270.166016" xlink:href="#DejaVuSans-44b"/>
      <use x="349.121094" xlink:href="#DejaVuSans-435"/>
     </g>
    </g>
    <g id="line2d_116">
     <path d="M 981.235937 114.176562 
L 1001.235937 114.176562 
" style="fill:none;stroke:#ffc0cb;stroke-linecap:square;stroke-width:3;"/>
    </g>
    <g id="line2d_117"/>
    <g id="text_20">
     <!-- V(t) -->
     <g transform="translate(1009.235937 117.676562)scale(0.1 -0.1)">
      <defs>
       <path d="M 1831 0 
L 50 4666 
L 709 4666 
L 2188 738 
L 3669 4666 
L 4325 4666 
L 2547 0 
L 1831 0 
z
" id="DejaVuSans-56" transform="scale(0.015625)"/>
       <path d="M 1984 4856 
Q 1566 4138 1362 3434 
Q 1159 2731 1159 2009 
Q 1159 1288 1364 580 
Q 1569 -128 1984 -844 
L 1484 -844 
Q 1016 -109 783 600 
Q 550 1309 550 2009 
Q 550 2706 781 3412 
Q 1013 4119 1484 4856 
L 1984 4856 
z
" id="DejaVuSans-28" transform="scale(0.015625)"/>
       <path d="M 1172 4494 
L 1172 3500 
L 2356 3500 
L 2356 3053 
L 1172 3053 
L 1172 1153 
Q 1172 725 1289 603 
Q 1406 481 1766 481 
L 2356 481 
L 2356 0 
L 1766 0 
Q 1100 0 847 248 
Q 594 497 594 1153 
L 594 3053 
L 172 3053 
L 172 3500 
L 594 3500 
L 594 4494 
L 1172 4494 
z
" id="DejaVuSans-74" transform="scale(0.015625)"/>
       <path d="M 513 4856 
L 1013 4856 
Q 1481 4119 1714 3412 
Q 1947 2706 1947 2009 
Q 1947 1309 1714 600 
Q 1481 -109 1013 -844 
L 513 -844 
Q 928 -128 1133 580 
Q 1338 1288 1338 2009 
Q 1338 2731 1133 3434 
Q 928 4138 513 4856 
z
" id="DejaVuSans-29" transform="scale(0.015625)"/>
      </defs>
      <use xlink:href="#DejaVuSans-56"/>
      <use x="68.408203" xlink:href="#DejaVuSans-28"/>
      <use x="107.421875" xlink:href="#DejaVuSans-74"/>
      <use x="146.630859" xlink:href="#DejaVuSans-29"/>
     </g>
    </g>
   </g>
  </g>
 </g>
 <defs>
  <clipPath id="pd8ea6fbbb8">
   <rect height="554.4" width="892.8" x="144" y="86.4"/>
  </clipPath>
 </defs>
</svg>
